<?xml version="1.0" encoding="UTF-8"?>
<svg viewBox="0 0 395.22238 1004.0892" xmlns="http://www.w3.org/2000/svg">
 <path d="m177.75 0c-4.9839-0.09894-9.6456 0.43253-13.25 1.6562-22.809 7.7437-36.548 17.933-38.781 28.75-0.55335 2.6806-1.7722 7.6904-2.6875 11.125-2.0323 7.6261-5.2812 51.151-5.2812 70.625 0 8.8262-0.91117 15.535-2.375 17.719-1.2973 1.9356-3.4668 6.3466-4.8125 9.7812-4.3037 10.985-9.5067 17.789-13.656 17.812-2.1441 0.01215-6.0629 0.84587-8.6875 1.8438-7.6752 2.9181-26.244 22.969-34.312 37.062-9.6884 16.922-6.8175 15.094 4.25-2.7188 8.4496-13.599 12.524-18.611 19.281-23.75 3.2805-2.4948 3.2873-2.4174 0.6875 2.75-4.4084 8.7622-7.3896 27.439-4.875 30.469 1.1644 1.403 2.6698 2.5312 3.375 2.5312 1.9051 0 9.9332-15.635 13.25-25.844 3.292-10.133 9.1801-20.531 11.625-20.531 0.90387 0 1.237 1.5127 0.75 3.375s0.05131 5.1936 1.2188 7.375c1.4176 2.6489 1.498 3.56 0.1875 2.75-1.1398-0.70446-2.0209 0.12506-2.0938 2-0.11889 3.0598-0.20817 3.0614-1.4375-0.0625-1.0586-2.6902-1.6429-2.8682-3.2188-0.90625-4.9959 6.2198-9.4256 18.243-12.875 34.906-5.4883 26.513-11.79 45.053-23.031 67.812-7.3048 14.79-10.803 20.125-13.219 20.125-1.8097 0-7.887-1.891-13.5-4.2188s-14.442-5.2328-19.594-6.4375-9.3438-2.7848-9.3438-3.5312 1.8393-4.08 4.0938-7.4062c8.4207-12.424 22.719-37.812 21.812-38.719-1.2124-1.2124-0.9712-1.566-8.9062 13.031-3.7341 6.8692-8.5754 14.9-10.75 17.844-8.1525 11.037-10.382 17.085-7.9688 21.594 1.8371 3.4326 1.7164 4.8773-0.71875 8.5938-3.352 5.1157-3.5939 6.4062-1.2812 6.4062 0.90016 0 3.0151-3.6642 4.7188-8.125 2.9417-7.7026 3.3778-8.0519 8.625-6.9688 3.0388 0.62729 10.552 3.4915 16.688 6.3438s13.366 5.1838 16.062 5.1875c5.2737 0.00717 16.5 5.9811 16.5 8.7812 0 3.8296-3.5921 3.4601-8.7812-0.90625-3.027-2.5471-5.5-3.8371-5.5-2.8438 0 1.0883-1.9496 0.88097-4.9062-0.53125-6.0438-2.8868-19.913-5.4536-17.406-3.2188 0.98132 0.87473 6.1965 2.9501 11.594 4.5938s12.235 4.4658 15.188 6.2812c5.0923 3.1311 13.188 16.892 15.938 27.094 1.1896 4.4147 1.1524 4.4084-2.0312 0.875-4.9915-5.5399-18.429-15.696-19.438-14.688-0.49709 0.49708 1.3434 2.6059 4.0938 4.6875s7.3429 5.5804 10.219 7.7812 11.207 11.181 18.5 19.938c13.16 15.801 13.252 15.957 12.125 24.062-0.62464 4.4917-1.918 15.802-2.875 25.125-2.0962 20.419-8.1163 39.058-13.281 41.062-1.9884 0.77164-5.1508 4.0838-7 7.375-3.7884 6.7426-20.188 22.281-21.812 20.656-1.4189-1.4189 10.185-17.451 11.875-16.406 0.72969 0.45098 1.8522-2.0154 2.5-5.4688s1.7511-5.9226 2.4375-5.5 1.2188-6.1963 1.2188-14.688c0-15.621 3.5752-31.361 6.6875-29.438 0.94179 0.58207 0.89939-0.42801-0.125-2.2812-3.222-5.8291-17.989-20.113-23.969-23.188-12.664-6.5118-32.688-28.321-41.312-45-1.6262-3.1448-3.4382-10.93-4.0312-17.281-1.108-11.865-4.1595-16.114-4.125-5.75 0.04633 13.911 6.9908 28.901 21.938 47.344 4.9875 6.1539 9.3231 12.973 9.6562 15.156 0.73939 4.8449 5.2624 9.65 7.1562 7.625 0.75935-0.81193 0.3629-1.8394-0.875-2.2812s-3.1351-2.444-4.2188-4.4688c-1.9117-3.5721-1.8003-3.5596 3.5938 0.28125 5.9457 4.2337 6.806 8.642 5.9062 29.594-0.21071 4.9066 0.39101 10.073 1.3125 11.5 2.923 4.5252 10.31-1.1075 13.75-10.469 3.7648-10.244 5.5448-12.33 7.0625-8.375 1.3692 3.568-3.6908 13.843-9.5312 19.344-4.5996 4.3324-5.8784 10.462-1.4062 6.75 1.4434-1.1979 5.0587-5.8247 8.0312-10.312 6.1852-9.338 7.4418-6.8297 1.4688 2.9375-7.9958 13.075-11.432 13.923-18.5 4.6562-5.412-7.0955-7.9062-7.8985-7.9062-2.5625 0 2.0206-0.79993 3.169-1.7812 2.5625-3.2411-2.0031-1.8569 2.0572 1.8438 5.4062 2.0643 1.8681 3.1902 4.4768 2.5938 6.0312-0.57713 1.504-0.5031 2.1906 0.15625 1.5312s2.356-0.01901 3.7812 1.4062c4.255 4.255 7.181 3.0456 14.125-5.875 3.6285-4.6613 5.946-6.8689 5.1562-4.9062s-1.269 7.7856-1.0625 12.938c0.29693 7.407-0.20256 9.3437-2.375 9.3438-4.4226 0-19.269 15.277-18.5 19.031 0.40783 1.9906 1.9125 3.0541 3.8438 2.7188 2.7063-0.46993 2.8932 4e-4 1.1875 3.1875-2.5274 4.7224-0.72408 10.754 3.2188 10.75 2.5412-0.00275 2.9095 1.6038 2.4062 10.5-0.59748 10.562 0.14082 12.832 8.5625 26.094 2.9806 4.6938 3.2569 7.5973 2.3438 23.656l-1.0312 18.312 7.3438 6.9688c7.1686 6.8193 7.3254 7.234 6.75 17.375-0.32417 5.7127 0.03424 12.006 0.8125 13.969 0.79654 2.0087 1.4919-8.5608 1.5625-24.188 0.1013-22.424 0.64469-28.421 2.9062-31.219 2.5701-3.1793 2.711-1.8043 1.8125 17.031-0.64285 13.477-0.3798 19.602 0.75 17.844 0.94606-1.472 1.7663-11.102 1.8125-21.406 0.06426-14.32 0.74311-19.585 2.9062-22.312 2.5941-3.271 2.736 0.99239 1.75 50.875-0.59164 29.93-1.8881 72.867-2.875 95.438s-2.6171 69.154-3.6562 103.5-2.6021 70.468-3.4688 80.281-1.7672 26.866-2 37.906c-0.37877 17.961-0.75949 20.094-3.625 20.094-6.5924 0-7.2841-5.7646-4.3438-36.25 6.4882-67.27 11.412-174.31 8.0312-174.31-0.99573 0-1.6875 13.028-1.6875 31.781 0 17.468-0.76946 42.551-1.7188 55.75-3.4312 47.707-7.9364 96.25-8.9375 96.25-1.1175 0-0.85339-5.2157 1.7812-34.781 3.5543-39.886 5.727-91.568 8.125-192.69 0.62832-26.496 1.3232-51.654 1.5312-55.875s-0.28693-8.0638-1.0938-8.5625-1.5608 7.3523-1.6875 17.469-0.43507 21.606-0.6875 25.531-0.97022 27.633-1.5938 52.656-1.4809 53.115-1.9062 62.438-1.2396 29.383-1.8125 44.594c-0.86783 23.042-3.1411 52.527-5.3125 68.719-0.26319 1.9626-0.59351 5.437-0.71875 7.75-0.16021 2.9589-1.0232 3.9101-2.9062 3.1875-4.9311-1.8922-7.8502 0.87296-8.8125 8.375-1.5221 11.867-2.2356 68.17-1.125 88.625l1.0312 18.719 51.719 0.9063c82.149 1.4163 232.4 1.0349 234.03-0.5938 0.81974-0.8168 1.5-12.463 1.5-25.875v-24.375l-7.375-15.188c-4.0616-8.3412-10.449-21.587-14.188-29.438l-6.8125-14.25-0.3125-135.62c-0.17456-74.58-0.8125-142.41-1.4062-150.75-3.6775-51.66-3.6149-52.573 3.1875-59.375 1.923-1.923 2.1748-4.2422 1.0312-9.3125-2.0633-9.1485 0.61949-24.013 6.4688-35.969 3.7001-7.5628 4.7975-12.392 4.7188-20.75-0.10004-10.621 3.4381-20.215 6.7188-18.188 1.7219 1.0642 2.9237-2.488 4.4375-13.219 1.0738-7.6113 5.2698-16.25 7.9062-16.25 2.3957 0 11.199-8.4853 9.5-9.1562-2.8956-1.1437-11.081-37.269-13.062-57.625-1.0442-10.726-2.2239-20.039-2.625-20.688s1.8695-3.6855 5.0312-6.75c5.6595-5.4854 5.8367-5.5576 12.844-3.0625 13.36 4.7573 19.894 2.87 27.656-8.0312 2.5528-3.5851 3.3905-6.5788 2.5625-9.1875-1.0861-3.422-1.5089-3.0563-3.625 3.125-4.703 13.738-13.179 16.285-29.5 8.875-11.726-5.324-18.795-10.04-22.094-14.75-3.7434-5.3445-6.4416-24.698-4.25-30.5 1.7743-4.6973 10.113-14.625 12.281-14.625 0.60067 0 0.87853 3.0076 0.625 6.6875-0.42793 6.2116-0.30248 6.0634 2-2.2188 1.364-4.9066 5.7226-18.206 9.6562-29.531 4.682-13.48 7.5844-25.485 8.4062-34.781 0.69049-7.8104 1.4748-15.403 1.75-16.875s0.54993-5.1984 0.625-8.2812c0.10324-4.2393 1.1201-5.8647 4.1562-6.6875 4.209-1.1406 11.796-10 8.5625-10-1.0271 0-1.875 0.76263-1.875 1.7188s-2.2958 2.9281-5.0938 4.375c-3.8307 1.9809-5.5817 2.1371-7.125 0.59375-2.893-2.893-2.5469-4.9984 0.625-3.7812 1.472 0.56487 2.6875 0.14881 2.6875-0.9375 0-1.7983-2.4174-2.7362-5.7812-2.2188-1.3304 0.20465-12.032-17.398-12.062-19.844-0.00921-0.73599 1.1843-1.3438 2.6562-1.3438s2.6877-0.5765 2.6875-1.3125-4.0478-1.3374-9-1.3125c-8.9568 0.04514-8.9952 0.02603-8.4688-5.3438 0.51502-5.2531 0.74489-5.3719 8.8125-4.8125 4.6079 0.31951 8.8116-0.28045 9.4688-1.3438 1.0304-1.6672-6.496-2.7755-16.438-2.4062-2.8695 0.10657-2.8192-1.587 0.15625-5.6562 1.9007-2.5994 4.5966-3.1984 13.375-3 6.0499 0.13676 11-0.42473 11-1.25s-3.2681-1.6552-7.2812-1.8125-8.0634-0.73363-9-1.3125-3.7789 0.30868-6.3125 1.9688c-3.7585 2.4627-4.8599 2.5708-6.0625 0.625-2.0465-3.3113 4.3714-13.018 9.0938-13.75 2.2108-0.34288 10.568 2.2159 18 5.0938 0.04284 0.10365 0.08282 0.20863 0.125 0.3125 0.233 0.59543 0.90457 0.88925 1.5 0.65625 0.11372-0.0445 0.22235-0.11459 0.3125-0.1875 4.4813 1.812 8.3754 3.6436 9.9062 4.9062 1.4645 1.2079 2.2187 1.2091 2.2188 0.03125 0-1.1877-5.553-4.4214-12.344-7.5625-1.0774-2.4742-2.3191-4.8669-3.7188-7.2188-0.03481-0.59418-0.36969-1.1064-0.875-1.4062-4.9323-7.8875-11.477-15.225-18.594-22.594-0.17581-0.18615-0.41029-0.27253-0.65625-0.3125-2.4274-5.3186 1.218-6.0214 8.5938-0.96875 7.999 5.4795 18.687 15.437 18.688 17.406 0 0.71574 2.6614 5.0336 5.9375 9.5938s6.4504 11.477 7.0312 15.375 3.425 21.139 6.3438 38.312 5.796 38.051 6.375 46.406 1.8643 21.601 2.875 29.438c2.6177 20.297 1.7797 54.856-1.6562 68.375-1.5776 6.2074-3.4006 10.724-4.0625 10.062s-0.75447 0.48258-0.21875 2.5312c1.5165 5.799 3.4205 3.0653 7.0312-10.031 4.114-14.922 4.5239-52.953 0.90625-86.125-2.8149-25.811-3.8043-35.506-4.0312-39.25-0.08925-1.472-0.96006-6.2716-1.9062-10.688s-2.8441-14.878-4.2188-23.219c-4.4881-27.233-6.6848-34.626-13.531-45.219-3.7123-5.7436-7.2189-11.884-7.7812-13.656-1.2817-4.0383-21.978-16.549-25.281-15.281-3.7652 1.4448-4.5761 5.0253-2.3125 8.5 0.05495 0.12631 0.11917 0.24199 0.21875 0.34375l0.0625 0.0625 0.0625 0.09375c0.38331 0.51791 0.82165 1.0306 1.3438 1.5312l1.5938 1.5312c5.9542 6.3348 11.294 12.637 15.406 19.281 1.1633 1.8795 2.237 3.7759 3.1875 5.7188-3.2752-1.4167-6.6554-2.7402-9.75-3.75-3.6014-1.1752-7.5568-3.3684-8.7812-4.8438-3.3669-4.0569-8.1787-6.1713-11.312-4.9688-1.7999 0.69068-3.2565 2.5425-3.25 5.1562 0.00706 2.8296 1.8356 6.312 3.4688 8.2812 1.7318 2.0883 3.239 3.3141 4.0625 3.6562-3.6983 5.1989-4.4388 8.8425-2.2188 11.062 0.71083 0.71083 1.3186 6.439 1.3438 12.719 0.0474 11.834 2.9438 16.733 10 16.875 4.5718 0.09193 20.164 25.265 18.719 30.219-0.45775 1.5686-1.3239 10.874-1.9375 20.688-1.7572 28.104-7.85 45.859-10.688 31.125-0.45649-2.3704-2.4637-6.5178-4.4375-9.1875s-3.5937-5.9858-3.5938-7.375c0-3.5224-11.817-29.093-14.094-30.5-1.0263-0.63429-3.1226-3.7274-4.6562-6.875-2.506-5.143-20.529-17.605-31.656-21.875-1.7134-0.65751-3.125-2.5927-3.125-4.3125s-4.115-6.2447-9.1562-10.062c-7.4816-5.6659-10.882-10.259-18.469-24.875-6.1607-11.87-10.041-22.077-11.562-30.312-2.74-14.83-7.9111-35.447-10.625-42.469-1.0749-2.781-1.5072-5.7538-0.96875-6.625 1.3062-2.1135-3.8783-9.9359-12.094-18.188-3.6799-3.6961-6.6875-7.4749-6.6875-8.4062s-2.8858-3.8774-6.4062-6.5625c-6.4187-4.8958-18.973-8.0636-29.938-8.2812zm-6.2188 2.9375c1.3244-0.02436 2.6514 0.07267 4.0625 0.28125 3.9944 0.59045 11.078 1.2777 15.719 1.5312 9.3762 0.51234 16.276 5.191 14.75 10-0.53259 1.678 0.62565 4.3811 2.6562 6.2188 1.9765 1.7887 3.5938 2.388 3.5938 1.3125s-0.79992-2.456-1.7812-3.0625-1.8125-2.0458-1.8125-3.1875 1.2288-0.31466 2.7188 1.8125 2.5133 4.907 2.25 6.1875 0.32739 2.1752 1.3438 2 1.9678 1.0403 2.0938 2.6875 1.0828 6.1997 2.125 10.125 1.8341 9.556 1.75 12.5c-0.1341 4.6935-0.33086 4.4767-1.5938-1.7812-2.1658-10.732-4.893-16.882-11.969-27.188-5.4862-7.9905-6.8246-9.0473-9.25-7.1562-2.4586 1.9169-2.5449 1.8436-0.59375-0.65625 3.4081-4.3665-1.4449-7.64-9.1875-6.1875-4.2054 0.78893-6.346 0.41591-6.875-1.1562-0.59777-1.7764-1.4845-1.6788-4.0625 0.40625-1.9064 1.5419-2.7407 1.7224-1.9688 0.4375 1.7312-2.8816-1.0185-2.8816-4.25 0-1.9642 1.7515-1.9405 1.497 0.09375-1.1875 2.4457-3.2275 2.3119-3.3396-2.6875-2.0938-7.5655 1.8854-24.1 9.7571-30.625 14.594-9.4186 6.9815-12.255 27.627-14.125 102.44-1.0859 43.437-2.3614 56.752-8.8125 91-3.9761 21.108-5.8274 36.788-7.0938 60.656-1.4764 27.825-2.3362 32.125-6.5625 32.125-1.8842 0-3.9039 1.1843-4.4688 2.6562-1.3533 3.5267-4.848 3.2505-16.875-1.4375l-9.9688-3.9062 3.375-6c8.6897-15.509 30.198-80.895 27.5-83.594-1.2526-1.2526-1.4092-0.83512-8.25 24.469-3.0509 11.285-7.58 25.746-10.094 32.125-5.7314 14.544-14.688 33.906-15.688 33.906-0.41543 0-3.5333-1.6349-6.9062-3.625l-6.125-3.625 9.625-19.031c11.082-21.909 18.882-44.979 23.781-70.25 3.7154-19.167 7.924-28.375 12.938-28.375 1.751 0 3.1875 0.79993 3.1875 1.7812s0.79993 1.7812 1.7812 1.7812c2.1814 0 2.4101-13.665 0.25-15-2.5104-1.5515-0.25962-10.043 6.1875-23.156l6.0625-12.281v8.4375c0 7.1466-0.87312 9.2445-5.5625 13.625-3.2206 3.0085-4.489 5.1875-3.0312 5.1875 1.3795 0 3.4787-0.97867 4.6562-2.1562 1.6653-1.6653 2.1562-1.6104 2.1562 0.15625 0 5.9647-20.818 137.27-23.156 146.06-0.84822 3.1893-0.9069 5.8125-0.125 5.8125s3.2013-9.8226 5.375-21.844 5.4874-30.43 7.375-40.906 5.0321-30.152 6.9688-43.719 4.2596-29.903 5.1875-36.281 2.1583-23.24 2.7188-37.469c3.0325-76.988 4.3642-90.734 10-102.62 3.693-7.7918 8.9252-11.549 26.562-19.188 6.6864-2.8956 10.683-4.1144 14.656-4.1875zm2.875 8.75c0.21822-0.06156 0.36381 0.11361 0.375 0.5 0.02985 1.0304-0.70257 2.6302-1.625 3.5625s-1.9711 5.6872-2.3438 10.594-0.82314 6.8774-1 4.375-1.238-5.4568-2.3438-6.5625c-1.1951-1.1951-1.5189-3.9984-0.78125-6.9375 0.8821-3.5145 1.6858-4.2651 2.7188-2.5938 1.1333 1.8337 1.8633 1.602 3.375-1 0.66632-1.1469 1.2613-1.8349 1.625-1.9375zm11.875 1.375c0.54063-0.13969 0.26909 1.4403-1.125 4.5-1.6478 3.6165-1.6093 4.9014 0.21875 6.0312 1.504 0.92951 1.666 1.8226 0.46875 2.5625-2.7741 1.7145-4.3513-5.3714-2.125-9.5312 1.224-2.2872 2.142-3.4538 2.5625-3.5625zm-6.375 3.125c0.86027-0.21748 1.0159 1.2904 0.59375 4.9062-0.39536 3.3866-1.4073 6.1562-2.2812 6.1562s-1.5938 1.564-1.5938 3.4688c0 7.262-2.6954 4.7125-2.9062-2.75-0.12188-4.3143 0.52172-7.8438 1.4375-7.8438s1.0809-1.0234 0.375-2.25-0.61554-1.6337 0.1875-0.90625 2.3857 0.58102 3.5-0.34375c0.27455-0.22786 0.48898-0.38731 0.6875-0.4375zm-22.062 3.1875c0.60754-0.04521 1.2486 0.69675 1.7812 2.375 1.2514 3.9428-4.0767 19.768-6.6562 19.781-0.73599 0.00368-1.3437 1.5999-1.3438 3.5625s0.86701 3.5625 1.9062 3.5625 1.2838 0.958 0.5625 2.125c-0.89281 1.4446-1.8446 0.87811-3.0312-1.7812-0.95861-2.1483-2.4466-3.9062-3.3125-3.9062s-0.73787 1.5999 0.3125 3.5625c2.2459 4.1965 0.91893 4.9049-1.4062 0.75-1.5963-2.8524 0.1672-13.504 3.6562-22.156 2.5525-6.3295 3.873-1.2093 1.4688 5.6875-1.0745 3.0822-1.4859 6.0453-0.9375 6.5938 1.8226 1.8226 4.3196-4.1679 4.375-10.5 0.04999-5.7133 1.2884-9.5568 2.625-9.6562zm-10.438 1.9062c2.048-0.33028 2.1891 2.4412-0.40625 7.125l-2.8125 5.0938 1.1562-5.3438c1.0938-5.0281 0.98359-5.1832-1.875-2.375-1.6737 1.6442-3.1106 5.4539-3.2188 8.4688s-0.21875 5.419-0.21875 5.3438-0.93838-0.5288-2.0938-1c-2.9665-1.2098 0.30294-9.8733 5.5938-14.844 1.6301-1.5314 2.9441-2.3186 3.875-2.4688zm10.25 0.9375c-0.36509 0.13443-0.58936 1.0894-0.53125 2.5 0.08561 2.0785 0.52419 2.5171 1.0938 1.0938 0.51541-1.288 0.43663-2.8446-0.15625-3.4375-0.14822-0.14822-0.28455-0.20106-0.40625-0.15625zm40.969 2.1562c0.48225 0.01215 0.55072 0.68414 0.09375 1.875-1.1861 3.091-2.4688 3.6602-2.4688 1.0938 0-0.9234 0.77992-2.1505 1.75-2.75 0.25285-0.15627 0.46425-0.2228 0.625-0.21875zm-8.4062 1.125c0.21377-0.13875 0.54408 0.45501 1 1.6875 0.87582 2.3675 1.119 6.4805 0.53125 9.1562-0.78614 3.5793-0.22103 5.3672 2.1562 6.75 3.0094 1.7505 3.0017 1.887 0.09375 1.9375-3.6214 0.06293-3.5136 0.36213-4-12.375-0.17796-4.66-0.13753-6.925 0.21875-7.1562zm-26.719 0.6875c0.24884-0.02221 0.11201 0.90623-0.40625 2.8438-0.65622 2.4533-1.9343 5.653-2.8438 7.125-1.1492 1.86-1.2667 1.3188-0.4375-1.7812 0.65622-2.4533 1.9343-5.653 2.8438-7.125 0.43096-0.69751 0.69445-1.0492 0.84375-1.0625zm40.562 1.4062c0.1217-0.04481 0.25803-0.02322 0.40625 0.125 0.59287 0.59288 0.64041 2.1495 0.125 3.4375-0.56955 1.4233-0.9769 0.98476-1.0625-1.0938-0.0581-1.4106 0.16615-2.3343 0.53125-2.4688zm-37.062 1.4375c0.38566 0 0.68749 1.2155 0.6875 2.6875s-0.76823 2.6562-1.7188 2.6562-1.2524-1.1843-0.6875-2.6562 1.3331-2.6875 1.7188-2.6875zm52.594 0.21875c0.2895-0.09586 1.3979 1.5315 2.7188 3.9688 1.5095 2.7854 2.4393 5.3732 2.0312 5.7812-0.78845 0.78844-4.9646-7.4729-4.8438-9.5938 0.00491-0.08623 0.05239-0.14256 0.09375-0.15625zm-32.5 0.5c0.34212 0.04454 0.6543 0.30372 0.96875 0.8125 0.67957 1.0996 0.46777 3.3891-0.46875 5.0625-1.0132 1.8105-1.0545 4.7115-0.125 7.1562 0.87134 2.2918 0.8599 4.0938 0 4.0938-2.3335 0-4.0975-12.105-2.25-15.406 0.68718-1.2279 1.3048-1.793 1.875-1.7188zm-6.0625 0.09375c0.10757 0.04008 0.22001 0.22459 0.34375 0.53125 0.49496 1.2266 0.49496 3.2421 0 4.4688s-0.90625 0.20329-0.90625-2.25c0-1.84 0.23979-2.8702 0.5625-2.75zm17.562 0.09375 0.75 6.2188c0.41032 3.4346 2.0097 7.6829 3.5625 9.4062s2.4966 3.424 2.0938 3.8125c-1.9201 1.8518-6.9402-8.3023-6.6875-13.531l0.28125-5.9062zm-3.2812 2.375c0.11559-0.03983 0.23475 0.21334 0.375 0.75 0.44877 1.7173 0.44877 4.5014 0 6.2188s-0.8125 0.30962-0.8125-3.125c0-2.3613 0.1832-3.7561 0.4375-3.8438zm-26.969 4.3125c0.2318-0.098 0.86403 0.33848 2 1.2812 1.4944 1.2403 2.7188 2.567 2.7188 2.9375 0 1.9989-3.3528 0.251-4.3125-2.25-0.46985-1.2244-0.63805-1.8708-0.40625-1.9688zm35.719 1.6562c0.1217-0.04481 0.25803 0.00803 0.40625 0.15625 0.59287 0.59288 0.64041 2.1183 0.125 3.4062-0.56955 1.4233-0.9769 1.016-1.0625-1.0625-0.0581-1.4106 0.16615-2.3656 0.53125-2.5zm-40.938 0.125c1.31 0.00361 3.3714 1.6659 7.25 5.5 6.9402 6.8604 6.9912 6.9745 1.5625 4.1875-3.0704-1.5763-6.1173-4.2263-6.75-5.875s-1.5779-2.5471-2.125-2-0.07783 2.7443 1.0625 4.875 1.7489 4.1886 1.3438 4.5938c-1.6981 1.6981-5.2282-7.9257-3.7812-10.312 0.37934-0.62574 0.84206-0.97039 1.4375-0.96875zm-26.875 1.9688c0.58255-0.1165 1.7888 0.69127 2.875 2 1.4073 1.6957 1.5268 2.7188 0.34375 2.7188-2.1563 0-4.6748-3.3876-3.4375-4.625 0.05614-0.05614 0.13553-0.07711 0.21875-0.09375zm42.844 3.5312c0.63981-0.10757 1.0938 0.31433 1.0938 1.0938 0 1.0392-0.79993 1.875-1.7812 1.875s-1.7813-0.34851-1.7812-0.78125 0.79993-1.2998 1.7812-1.9062c0.24533-0.15162 0.47423-0.24539 0.6875-0.28125zm48.531 0c0.41703-0.02625 0.7991 1.1439 1.4375 3.6875 0.6974 2.7786 0.81968 5.4928 0.28125 6.0312s-1.0714-0.55664-1.1875-2.4375c-0.12938-2.0956-0.75914-1.3425-1.5938 1.9375-1.2359 4.8569-1.3598 4.9224-1.4375 0.875-0.04714-2.4533 0.52789-6.0106 1.2812-7.9375 0.5364-1.3719 0.89439-2.1358 1.2188-2.1562zm-93.844 0.8125c0.41307 0.04463 0.96716 0.4425 1.7188 1.0938 1.5102 1.3086 3.6758 2.0394 4.8125 1.625 2.5861-0.94281 4.7991 2.3685 3.25 4.875-0.79042 1.2789-1.9665 1.2095-3.6875-0.21875-1.9788-1.6423-2.5-1.5003-2.5 0.625 0 1.4871-1.1758 3.1434-2.5938 3.6875-2.0026 0.76848-2.4974-0.57884-2.2812-6 0.16759-4.2026 0.37249-5.7857 1.2812-5.6875zm24.125 2.2188c0.44227-0.01923 1.0183 0.51103 1.6875 1.5938 0.56458 0.91351 0.21608 2.1649-0.78125 2.7812s-1.8125-0.12636-1.8125-1.6562c0-1.7629 0.33762-2.694 0.90625-2.7188zm25.812 1.6875c0.34311-0.03569 0.65353 0.05978 0.90625 0.3125 0.34514 0.34514-0.51451 2.1904-1.9062 4.0938-2.1163 2.8942-2.5312 2.9666-2.5312 0.53125 0-2.2405 2.0444-4.7828 3.5312-4.9375zm7.7812 0.84375c0.88929-0.10887 1.1875 0.4853 1.1875 1.9062 0 1.5644-0.74919 2.4043-1.6562 1.8438s-1.9327 0.39568-2.2812 2.125c-0.59762 2.9648-0.6943 2.9498-1.8438 0.03125-0.82406-2.0924-0.08618-3.7018 2.2812-4.9688 1.0497-0.56177 1.7789-0.87218 2.3125-0.9375zm-24.688 6.1562c1.2484 0.02381 2.9178 0.48721 4.4688 1.3125 3.2147 1.7106 3.58 2.3873 1.375 2.4062-4.5212 0.03887-6.7578 5.7205-6.5 16.406l0.21875 9.5 2-9.8125c1.1008-5.3972 2.6436-10.836 3.4375-12.062 1.6361-2.528 7.3386-3.1136 5.7812-0.59375-0.5547 0.8975 0.01724 2.0791 1.25 2.625s0.70458 0.81052-1.1562 0.59375c-4.7264-0.5506-5.5028 3.2159-1.5 7.2188 3.9867 3.9868 16.5 3.4888 16.5-0.65625 0-1.3659 1.7899-2.5298 4-2.5625l4.0312-0.0625-4.2188-3.5c-3.9964-3.3293-4.0259-3.5-0.59375-3.5 1.9896 0 3.8947-0.87151 4.25-1.9375s0.8299 1.8424 1.0312 6.4688 1.3148 9.572 2.5 11 2.2687 4.1336 2.4062 6 1.7367 5.017 3.5312 7 2.7107 4.133 2.0625 4.7812-1.1562 0.20278-1.1562-1-0.77459-1.7204-1.6875-1.1562-1.286 5.009-0.84375 9.875c0.73972 8.14 0.29823 9.3945-5.5 15.812-4.3252 4.7874-8.7929 7.6025-14.219 8.9688-4.3483 1.0949-9.7359 1.9447-12 1.9062-3.5481-0.06019-3.3105-0.42142 1.6875-2.5938 3.5115-1.5262 5.7531-3.7758 5.7188-5.7188-0.05251-2.9684-0.24873-2.9438-2.6875 0.28125-1.925 2.5456-4.4159 3.3568-9.25 3.0312-7.0964-0.47792-9.6214-2.7046-8.1875-7.25 0.7165-2.2712 0.55514-2.3363-0.84375-0.375-1.3537 1.8979-2.7852 0.66793-6.3125-5.375-5.6737-9.72-8.0821-15.82-11.156-28.312-3.2511-13.211-3.1853-18.772 0.125-11.156 2.4977 5.7465 8.304 7.9384 10.719 4.0312 2.4979-4.0416 3.5449-1.2522 2.9688 8-0.48006 7.7094-0.0143 10.049 2.2188 10.906 2.9819 1.1443 3.9964 6.0625 1.25 6.0625-3.7812 0-3.8417 6.3088-0.09375 9.3438 5.3363 4.321 12.473 4.0889 13.656-0.4375 0.51325-1.9626 2.0487-3.5625 3.4062-3.5625s2.4764-0.60776 2.4688-1.3438c-0.01918-1.8426-8.8945-5.7812-13-5.7812-4.6398 0-2.8465-4.3378 2.0938-5.0625 8.306-1.2185 6.1443-9.2117-2.4688-9.125-3.1636 0.03183-3.0795 0.33316 0.875 2.5938 4.4043 2.5177 4.4326 2.5313 0.46875 2.5938-2.208 0.03477-4.0313 0.86198-4.0312 1.8125s-0.99211 1.3446-2.2188 0.875c-1.5319-0.58646-2.25-5.4191-2.25-15.406 0-10.817-0.62484-14.75-2.4688-15.375-1.3632-0.46177-2.0336-0.14454-1.5 0.71875s-2.1059 1.5938-5.8438 1.5938-6.4236-0.60776-5.9688-1.3438 3.3063-1.3438 6.3125-1.3438c4.6562 0 5.1422-0.4076 3.25-2.6875s-1.4639-2.6562 2.9688-2.6562c2.8678 0 6.0052-0.70199 6.9375-1.5312 0.35362-0.31455 0.93844-0.45179 1.6875-0.4375zm45.5 1.9688c0.98131 0 1.7812 0.79993 1.7812 1.7812s-0.79994 1.7812-1.7812 1.7812-1.7812-0.79993-1.7812-1.7812 0.79993-1.7812 1.7812-1.7812zm-64.188 0.4375c1.012-0.08746 1.7188 0.34152 1.7188 1.1562 0 1.0863-1.1393 1.9688-2.5625 1.9688s-3.406 1.4077-4.4062 3.125c-1.6242 2.7885-1.8265 2.679-1.875-0.90625-0.02984-2.208 0.66143-4 1.5625-4s2.9165-0.4981 4.4688-1.0938c0.38806-0.14891 0.7564-0.22085 1.0938-0.25zm-11.75 0.46875c0.24069-0.07365 0.45796 0.12389 0.625 0.625 0.42907 1.2872-0.08819 3.1819-1.125 4.2188-1.324 1.324-1.5573 0.62402-0.78125-2.3438 0.39432-1.5079 0.88011-2.3772 1.2812-2.5zm45.75 1.0938c0.61983-0.02553 1.3248 0.08604 1.9688 0.34375 1.4233 0.56957 0.98479 0.97689-1.0938 1.0625-1.8808 0.07747-2.9366-0.34462-2.3438-0.9375 0.29645-0.29644 0.84892-0.44322 1.4688-0.46875zm45.125 5.4688c0.1217-0.04481 0.25803-0.02322 0.40625 0.125 0.59288 0.59288 0.6404 2.1495 0.125 3.4375-0.56956 1.4233-0.9769 0.98476-1.0625-1.0938-0.05811-1.4106 0.16616-2.3343 0.53125-2.4688zm3.7188 0.53125c0.10286-0.00929 0.22156 0.13551 0.34375 0.4375 0.48873 1.208 0.51487 3.6078 0.0625 5.3438s-0.83864 0.75645-0.875-2.1875c-0.02728-2.208 0.16017-3.5659 0.46875-3.5938zm-8.5938 0.25c0.2357-0.04394 0.33318 1.4079 0.40625 4.125 0.11741 4.365-0.7084 14.411-1.8438 22.312-1.8452 12.842-1.6443 16.457 1.875 34 5.8374 29.099 10.914 38.106 36.094 64.156 22.885 23.675 25.918 29.076 32.031 56.875 1.9439 8.8398 1.9137 10.631-0.25 12-4.4797 2.835-5.2188 1.8518-5.2188-6.9375 0-7.2474-4.0472-22.204-9.9375-36.75-1.0642-2.628-0.7933-3.1001 1.1562-2.0625 1.3934 0.74166-4.8436-5.7297-13.844-14.406-26.943-25.975-34.454-38.177-40.844-66.344-4.7879-21.106-5.2246-35.204-1.75-56.5 1.1653-7.1422 1.7805-10.405 2.125-10.469zm12 1c0.1217-0.04481 0.25803 0.00803 0.40625 0.15625 0.59288 0.59288 0.67167 2.1183 0.15625 3.4062-0.56956 1.4233-1.0081 0.98476-1.0938-1.0938-0.0581-1.4106 0.16616-2.3343 0.53125-2.4688zm-19.25 0.09375c2.0849-0.06973 1.9538 0.38996 0 2.3438-3.1761 3.1761-4.5937 3.2711-4.5938 0.28125 0-1.2631 1.59-2.4139 3.5625-2.5625 0.38998-0.02938 0.73341-0.05254 1.0312-0.0625zm-11.094 0.09375c0.27868-0.02805 0.86295 0.14762 1.7812 0.5 1.6108 0.61811 2.9062 1.8424 2.9062 2.7188 0 2.2944-1.0242 1.971-3.5938-1.125-1.1784-1.42-1.5582-2.047-1.0938-2.0938zm-18.75 1.5938c1.7775-0.0228 3.4723 0.37852 4.1875 1.0938 1.1224 1.1224 0.9653 2.2075-0.46875 3.0938-1.428 0.88259-1.7894 0.64033-0.96875-0.6875 0.83703-1.3544-0.42348-2.1528-3.7188-2.3125-4.5105-0.21867-4.6106-0.31112-0.8125-1.0312 0.58029-0.11003 1.1888-0.14865 1.7812-0.15625zm-47.938 0.09375c1.735-0.06155 2.0861 1.2266 0.6875 3.4688-2.8484 4.5665-2.3747 8.3793 1.1562 9.5 2.8061 0.89061 3.3142 2.1172 2.4062 5.9062-1.5488 6.4634-3.165 7.7779-2.0625 1.6875 0.66372-3.6665-0.09417-5.5034-3.0938-7.4688-4.5872-3.0057-5.4035-10.981-1.2812-12.562 0.87031-0.33397 1.6092-0.51073 2.1875-0.53125zm15.281 1.4062c1.3662 0.013 2.5938 0.51191 2.5938 1.5312 0 1.9694-4.6389 3.8924-6.0312 2.5-0.55992-0.55992-0.5844-1.7181-0.0625-2.5625 0.6263-1.0134 2.1338-1.4818 3.5-1.4688zm55.812 4.0312c1.7991-0.13552 3.2812 0.88258 3.2812 2.2812 0 2.6565-0.61894 2.8654-4.3125 1.375-3.2917-1.3282-2.7187-3.3738 1.0312-3.6562zm28.094 10.562c0.316-0.01737 1.1245 2.6182 2.4688 7.6562 1.8328 6.8692 3.4199 13.908 3.5 15.625 0.3236 6.9399-3.0923 2.5175-4.1562-5.375-1.6435-12.192-2.2744-17.881-1.8125-17.906zm-5.7188 5.3125c0.1217-0.04481 0.25803 0.00803 0.40625 0.15625 0.59288 0.59288 0.67166 2.1183 0.15625 3.4062-0.56956 1.4233-1.0082 1.016-1.0938-1.0625-0.0581-1.4106 0.16616-2.3656 0.53125-2.5zm-88.188 5.0312c0.0454-0.01683 0.06946 0 0.125 0 2.3456 0 5.544 6.6603 4.9375 10.281-0.30364 1.8128 0.463 2.8802 1.8438 2.5938 1.2996-0.26964 1.8715 0.33812 1.25 1.3438-1.5578 2.5206-3.6662 2.2751-6.125-0.6875-1.3573-1.6354-1.4501-2.7202-0.25-3.125 1.162-0.39198 0.89357-2.3957-0.71875-5.5-1.314-2.53-1.7434-4.6538-1.0625-4.9062zm81.062 0.3125c0.1217-0.04481 0.25802 0.00803 0.40625 0.15625 0.59288 0.59288 0.64039 2.1183 0.125 3.4062-0.56956 1.4233-0.97688 1.016-1.0625-1.0625-0.0581-1.4106 0.16615-2.3656 0.53125-2.5zm8.7188 1.4375c0.02688-0.00656 0.062 3e-4 0.09375 0.03125 1.4944 1.4564 5.9978 23.465 6.375 31.156 0.38111 7.7725 6.1604 35.156 9 42.625 0.9858 2.5929 1.5041 4.7188 1.125 4.7188-1.5975 0-10.393-11.735-13.812-18.438-5.0612-9.9207-10.838-34.935-9.3438-40.438 1.1752-4.326 1.2753-4.2879 2.9062 1.6562 1.2686 4.6236 2.0502 5.4941 3.25 3.5625 0.96046-1.5463 0.91797-2.7971-0.125-3.1562-0.94986-0.32711-1.7025-1.927-1.6875-3.5625 0.02378-2.588 0.27012-2.6105 1.9062-0.28125 1.3558 1.9302 1.5438-0.31051 0.6875-8.0312-0.61223-5.5199-0.77822-9.7454-0.375-9.8438zm-103.03 0.15625c0.34065 0.11019 0.74886 1.0836 1.25 3 0.45318 1.733 0.19792 4.7718-0.5625 6.7188-1.0531 2.6964-1.4045 1.9402-1.5-3.1562-0.08398-4.4808 0.24475-6.7462 0.8125-6.5625zm198.34 1.6562c1.8895 0 4.9442 1.0942 6.7812 2.4375 3.1963 2.3372 3.0874 2.7236-2.3438 9.3125-0.60276 0.73125-1.1191 1.4443-1.625 2.125-0.32113-0.77955-1.2388-2.1029-3-4.0625-5.9573-6.6286-3.3031-9.8125 0.1875-9.8125zm-187.88 0.5625c0.48551-0.12871 1.2103 0.70624 1.7188 2.0312 1.2065 3.144 0.16558 3.6904-1.5938 0.84375-0.64683-1.0466-0.7802-2.2823-0.3125-2.75 0.05846-0.05846 0.11814-0.10661 0.1875-0.125zm73.469 1.7812c0.4748 0.02803 0.78125 0.38667 0.78125 1 0 0.98132-0.79994 2.2998-1.7812 2.9062s-1.7812 0.29382-1.7812-0.6875 0.79993-2.2998 1.7812-2.9062c0.36799-0.22743 0.71512-0.32932 1-0.3125zm-44.375 6.5938c5.0449 0.02028 6.1117 0.4661 4.125 1.75-3.4894 2.255-8.4188 2.255-9.8125 0-0.66236-1.0717 1.6053-1.7664 5.6875-1.75zm-21 6.3438c0.52372-0.05583 1.4294 0.05407 2.7812 0.3125 2.4504 0.46843 4.0059 1.5684 3.4688 2.4375-1.4005 2.266-3.5804 1.9588-5.9062-0.84375-1.0207-1.2298-1.2166-1.8132-0.34375-1.9062zm93.438 3.4375 0.75 4.9062c0.40882 2.6986 1.3978 4.9062 2.1875 4.9062s1.9807 4.189 2.6562 9.2812c1.7015 12.827 8.3951 31.203 17.812 48.906 4.3776 8.2289 7.7824 14.969 7.5625 14.969s-4.7495-4.4014-10.062-9.7812c-7.0236-7.1119-10.276-12.096-11.969-18.281-4.0581-14.828-9.465-43.971-9.1875-49.531l0.25-5.375zm-106.66 0.6875c0.09522 0.00832 0.20086 0.19853 0.3125 0.625 0.44658 1.7059 0.45802 4.9368 0.03125 7.1562s-0.7927 0.83152-0.8125-3.0938c-0.01485-2.944 0.18308-4.7124 0.46875-4.6875zm72.688 0.375 3.3438 6.5312c3.5558 6.9745 4.4092 10.21 1.5312 5.7812-1.3621-2.0959-1.6827-1.6807-1.4688 1.8125 0.15028 2.4533-0.31979 8.6606-1.0625 13.812-0.92469 6.414-0.74261 9.375 0.59375 9.375 1.0734 0 1.8662-0.60776 1.75-1.3438-0.811-5.1363 0.51605-18.281 1.8438-18.281 0.89571 0 1.2305 2.4828 0.75 5.5312-0.53276 3.3806-0.19533 5.1302 0.875 4.4688 1.0258-0.63397 1.3583 0.38149 0.8125 2.4688-0.51361 1.964-0.09213 3.5938 0.9375 3.5938s2.4083 1.5999 3.0312 3.5625 2.4738 3.6085 4.125 3.6562 5.9989 4.6336 9.6562 10.219l6.6562 10.156-6.375 3.2812c-8.273 4.2443-6.688 5.9137 1.7812 1.875 6.2287-2.9703 6.5615-2.9796 8.9688 0.3125 2.2776 3.1148 1.9972 3.6307-2.9688 5.7188-2.9992 1.2611-4.9854 2.7333-4.4375 3.2812s3.5434-0.31161 6.6875-1.9375c4.3056-2.2265 5.5443-2.3852 4.9688-0.59375-0.42027 1.3082-7.5373 5.181-15.812 8.5938-13.082 5.3952-16.854 6.1862-28.969 6-7.6631-0.11776-13.709 0.0141-13.406 0.3125s4.5934 1.353 9.5 2.3438 10.922 2.3471 13.375 3c3.3584 0.89384 3.7899 0.73138 1.8125-0.65625-2.9939-2.1009-3.8086-1.6815 12.469-6.5 5.3972-1.5977 10.918-3.3469 12.281-3.9062 5.8068-2.3828-0.92315 3.6375-13.594 12.188-15.059 10.162-27.06 15.39-46.906 20.344-7.3379 1.8316-12.041 3.5961-10.438 3.9375 4.6238 0.98468 31.554-6.4764 41.406-11.469 12.366-6.2663 34.679-21.816 38.781-27.031l3.4062-4.3125 6.875 6c7.2292 6.3132 16.759 19.434 10.281 14.156-2.0014-1.6305-0.87895 1.6388 3.0625 8.9062 6.8268 12.587 9.1352 22.511 8.625 37.094-0.28348 8.1031 0.43165 10.484 4.875 16.094 5.0641 6.3939 5.2871 7.4743 7.25 36.875 1.1122 16.659 2.7603 37.128 3.6562 45.469s2.0056 19.156 2.4688 24.062 1.8559 17.848 3.0938 28.75c1.6502 14.534 1.729 21.44 0.3125 25.875-1.8467 5.782-1.9509 5.8489-2.125 1.2188-0.10566-2.8098-1.6111-5.6264-3.5938-6.6875-2.901-1.5526-49.336-2.5916-109.88-2.4688-21.457 0.04355-62.931 2.0037-66.562 3.1562-3.2098 1.0188-3.334 0.52856-1.9688-6.5312 0.81153-4.1964 1.3896-9.6092 1.3125-12.062s-1.0803 0.74644-2.25 7.125-1.4829 12.485-0.6875 13.562c0.86134 1.167-0.17524 3.3228-2.5625 5.3438l-4 3.4062 3.4062-4.0312c1.8694-2.208 2.4832-4 1.375-4s-3.1857 2.2791-4.625 5.0625c-2.9789 5.7606-14.273 15.008-16.094 13.188-0.66364-0.66364-0.75167-0.00146-0.1875 1.4688s-0.00169 3.9724-1.25 5.5625-4.1584 3.458-6.5 4.1562c-3.9668 1.1829-4.169 0.94297-2.9375-3.8125 2.9996-11.583 6.4772-33.302 9-55.969 1.4745-13.248 3.906-31.709 5.4062-41.031s3.2217-24.297 3.8125-33.281c0.95932-14.589 1.5046-16.549 5.0312-18.156 5.4816-2.4976 6.2224-8.0822 6.25-46.469 0.02315-32.237 0.19756-33.694 5.3438-48.406 2.9177-8.3412 5.3307-18.772 5.375-23.188 0.06876-6.8485 0.39604-7.5791 2.25-4.9062 14.822 21.369 18.95 26.388 23.062 28.156 2.6488 1.1386 5.8485 1.6848 7.125 1.1875s-0.17698-1.4744-3.25-2.1562c-4.1117-0.91227-7.7028-4.1455-13.594-12.219-10.371-14.213-13.904-21.265-13.438-26.906 0.20803-2.5136 0.50323-4.5625 0.65625-4.5625s3.8407 1.9768 8.1875 4.4062c12.545 7.0115 32.435 14.724 40.938 15.875 6.294 0.8518 5.2196 0.21398-5.5625-3.3125-7.3599-2.4072-20.221-7.8313-28.562-12.031-18.947-9.5404-20.321-13.346-8.125-22.469 5.4691-4.0908 7.6282-6.8392 6.9688-8.9062-0.78239-2.4524-0.64386-2.5352 0.84375-0.4375 2.4413 3.4426 7.6482-0.65218 6.2812-4.9375-0.58625-1.8379-0.36291-2.2522 0.5625-1.0625 0.82856 1.0652 3.0999 2.946 5.0625 4.1562 3.4783 2.1449 3.4704 2.1674-0.3125 1.375-2.572-0.53875-3.5902-0.08163-3.0312 1.375 1.0232 2.6665-10.22 11.584-16.844 13.344-2.812 0.74719-5.0071 2.6883-5.3125 4.75-0.88192 5.9542 15.773 12.534 51.281 20.25 16.398 3.5632 44.687 5.0562 44.688 2.3438 0-0.74063-7.1216-1.4767-15.844-1.625s-20.56-1.2283-26.312-2.4062c-15.141-3.1006-47.496-14.083-50.625-17.188-1.472-1.4604-1.8563-2.525-0.875-2.3438 3.9255 0.72523 6.267-0.36323 14.625-6.7812 15.057-11.562 15.662-11.703 18.188-4.7188 1.2081 3.341 2.9114 6.0625 3.7812 6.0625s0.14637-3.231-1.625-7.1875c-2.6648-5.952-2.9244-8.5846-1.4062-15.219 1.2538-5.479 2.437-7.438 3.6875-6.1875 2.6882 2.6882 20.134 2.2182 25.719-0.6875 2.6499-1.3787 6.7258-4.5298 9.0625-7.0312l4.25-4.5625zm-56.438 2.0938c0.83899-0.08811 2.7573 0.50089 5.6562 2 6.7832 3.5077 8.7215 8.2942 4.5938 11.312-3.9047 2.8552-5.427 2.8493-7.1875 0.03125-2.3337-3.7357-2.3605-7.0746-0.03125-5.2812 3.3813 2.6033 8.3438 3.9588 8.3438 2.2812 0-0.85359-2.9104-3.2443-6.4688-5.3438-4.7557-2.8059-6.3046-4.8532-4.9062-5zm101.28 1.2812c0.30483 0.01234 2.0737 2.895 4.4688 7.375 5.0486 9.4434 9.5728 14.363 19.875 21.594 4.0365 2.8332 4.1543 3.2369 1.2812 5-3.6334 2.2297-4.1228 7.6852-0.90625 10.219 3.3657 2.651 12.603 4.5529 11.219 2.3125-0.63079-1.0206-2.2061-1.875-3.5-1.875-2.687 0-7.3572-4.9553-5.9688-6.3438 1.1187-1.1187 15.577 6.416 22 11.469 2.5597 2.0134 6.1144 4.1188 7.9062 4.6875 5.3366 1.6938 27.092 40.471 24.281 43.281-0.56796 0.56797 0.95766 3.6335 3.4062 6.8438s4.4687 7.1468 4.4688 8.7188 1.2923 4.8494 2.9062 7.3125c2.7364 4.1764 2.7399 5.2311-0.3125 15.312-1.8003 5.9458-4.5316 11.253-6.0625 11.812s-5.5871 3.2899-9 6.0625c-5.4467 4.4248-7.6754 5.0312-18.281 5.0312-8.4624 0-12.106-0.65679-12.125-2.2188-0.02158-1.7626-0.30517-1.7526-1.4375 0.03125-1.3975 2.2016-3.875 1.2031-3.875-1.5625 0-1.3688 2.3289-1.098 10.406 1.25l4.125 1.2188-4.125-8.25c-2.2834-4.5287-4.9729-7.9436-5.9688-7.5938-1.0713 0.37639-1.583-1.9821-1.25-5.8125 0.30953-3.5606-1.1137-12.515-3.1562-19.875-4.0661-14.651-3.9633-13.902-2.6875-24.094 0.63798-5.0965 0.42123-6.1108-0.71875-3.5625-1.439 3.2166-1.7245 3.2687-2.8438 0.53125-0.68294-1.6703-0.72234-3.8579-0.09375-4.875 0.67372-1.0901 0.06586-1.4446-1.5-0.84375-1.5016 0.57622-2.2778 2.3184-1.75 4 1.4595 4.6501-11.357-15.913-14.281-22.906-12.262-29.327-22.296-59.704-20.344-61.656 0.38699-0.38699 2.5444 5.5072 4.8125 13.094 5.7583 19.261 20.63 46.899 26.531 49.344 2.6332 1.0912 1.8095-0.72272-4.0312-8.8125-9.6607-13.381-13.53-22.536-23.438-55.75-0.09552-0.32022-0.10159-0.4716-0.03125-0.46875zm112.28 2.5c-0.0461 0.01471-0.11538 0.05288-0.15625 0.09375-0.55154 0.55154 0.09651 4.3118 1.4375 8.375s2.7564 6.4808 3.125 5.375c0.84671-2.5401-2.9771-14.3-4.4062-13.844zm-159.38 7.3438-2.5625 10.719c-1.4092 5.8879-2.5617 12.287-2.5625 14.25-0.00296 7.2337 3.3294-4.4174 4.25-14.875l0.875-10.094zm155.22 2.6875c-1.3195 0-1.2872 1.1384 0.09375 3.7188 1.0954 2.0467 2.4364 3.2824 2.9688 2.75 1.4707-1.4707-0.89947-6.4687-3.0625-6.4688zm-210.22 1.0312c0.83162-0.09734 2.9599 0.95425 5.0938 2.5938 2.4386 1.8737 3.5703 3.4469 2.5312 3.4688-2.5786 0.05415-9.044-4.7998-7.9062-5.9375 0.06297-0.06297 0.16245-0.11109 0.28125-0.125zm205.72 2.6562c-0.52659-0.07225-0.84375 1.1079-0.84375 3.5312 0 2.0206 0.78028 3.205 1.7188 2.625s1.2403-2.2157 0.6875-3.6562c-0.61919-1.6136-1.1529-2.4438-1.5625-2.5zm-185.59 0.59375c-0.30775-0.11311 0.31121 1.1774 1.5938 3.75 1.4677 2.944 5.7898 8.6472 9.5938 12.688 8.0785 8.5804 13.97 17.004 13.344 19.094-0.24255 0.80893 0.39795 0.9669 1.4062 0.34375 2.4832-1.5347-0.08559-6.0461-9.4062-16.562-4.1278-4.6574-9.7913-11.296-12.562-14.719-2.4217-2.9913-3.661-4.4806-3.9688-4.5938zm-37.438 1.9375c0.10286-0.00929 0.22157 0.13551 0.34375 0.4375 0.48874 1.208 0.51488 3.6078 0.0625 5.3438s-0.83864 0.75645-0.875-2.1875c-0.02727-2.208 0.16017-3.5659 0.46875-3.5938zm205.59 8.0625c1.1687-0.01503 2.6123 0.79992 3.2188 1.7812 1.369 2.2152 0.74021 2.2151-2.6875 0-1.6081-1.0392-1.808-1.7648-0.53125-1.7812zm-75.906 2.0625c-0.40593 0.10934 0.44533 0.81559 2.4062 2.4062s3.3703 3.6504 3.125 4.5625c-0.62075 2.3077 2.6319 2.084 4.0938-0.28125 1.5117-2.4459-0.59848-4.4507-6.3125-5.9688-1.9064-0.50648-2.9968-0.80379-3.3125-0.71875zm-38.844 1.8125c0.1217-0.04481 0.25802 0.00803 0.40625 0.15625 0.59288 0.59288 0.64039 2.1495 0.125 3.4375-0.56956 1.4233-0.97688 0.98476-1.0625-1.0938-0.0581-1.4106 0.16615-2.3656 0.53125-2.5zm-13.344 5c-0.29143 0.04643-0.60685 0.2006-0.90625 0.5-0.58892 0.58892-0.42482 2.1001 0.34375 3.3438 1.1241 1.8188 1.5519 1.8131 2.1562 0 0.70075-2.1022-0.33088-4.045-1.5938-3.8438zm-118.31 3.5938c2.9863 0 3.1142 0.79797 0.78125 4.9375-0.96032 1.704-4.217 9.65-7.2188 17.656s-6.7149 15.601-8.25 16.875c-2.5053 2.0792-2.6646 1.0479-1.5-10.094 1.0631-10.17 2.4111-13.962 7.4688-20.906 3.3951-4.6613 7.3304-8.4688 8.7188-8.4688zm126.53 3.5625c-2.4533 0-4.4688 0.68602-4.4688 1.5312s2.0154 1.1565 4.4688 0.6875 4.4375-1.155 4.4375-1.5312-1.9842-0.6875-4.4375-0.6875zm-67.344 1.8125c-1.1766 0.05652-1.6434 0.28494-1.2188 0.6875 0.40888 0.38758 4.3653 1.2164 8.7812 1.8438s10.847 1.8402 14.281 2.6875 9.4497 1.5298 13.375 1.5312c4.7794 0.0018 1.5386-1.0723-9.8125-3.2812-11.893-2.3144-21.876-3.6383-25.406-3.4688zm57.344 0.125c-1.5652-0.07747-4.3806 1.667-6.25 3.875-3.37 3.9803-3.3506 3.99 0.1875 1.125 1.9626-1.5893 4.7468-3.3338 6.2188-3.875 2.2716-0.83524 2.2592-1.0054-0.15625-1.125zm85.625 3.4375c-0.97763 0 0.81431 3.1997 3.9688 7.125 6.4772 8.06 6.7328 8.1569 11.5 4.4375 2.3972-1.8703 2.6337-2.5766 0.78125-2.25-1.472 0.25953-3.1697 1.1189-3.75 1.9062s-3.2161-1.4203-5.875-4.9062-5.6474-6.3125-6.625-6.3125zm-5.9375 4.0938c-1.7483 0.02445-4.4443 0.40084-8.1562 1.125-0.49066 0.09573 0.19597 0.87275 1.5312 1.7188 2.8412 1.8002 9.1875 0.50208 9.1875-1.875 0-0.67224-0.81417-0.9932-2.5625-0.96875zm-158.91 3.375c-0.05517 0.0113-0.09508 0.03258-0.125 0.0625-0.51089 0.51089 2.5392 2.9929 6.75 5.5312 8.4204 5.0761 8.5312 5.1527 8.5312 3.9062 0-1.5-13.446-9.8503-15.156-9.5zm-29.375 3.2188c-1.7206 0-7.0438 18.186-5.9062 20.188 1.2454 2.191 1.6902 1.2154 4.5938-9.9375 1.469-5.6426 2.075-10.25 1.3125-10.25zm212.5 5.625c-0.16377 0.0215-0.33931 0.06108-0.53125 0.125-1.3204 0.43967-2.661 2.2198-3 3.9688-0.39431 2.034 0.24571 2.8863 1.7812 2.375 1.3204-0.43967 2.661-2.2198 3-3.9688 0.34502-1.7798-0.10363-2.6505-1.25-2.5zm-73.062 1.9375c-3.29-0.13237-13.066 3.3311-19.031 6.9688-7.901 4.8183-2.6653 4.028 7.6562-1.1562 4.8844-2.4533 9.9086-4.4375 11.156-4.4375s1.776-0.50531 1.1875-1.0938c-0.17592-0.17592-0.49875-0.26234-0.96875-0.28125zm-170.94 5.5312c-0.21327 0.03586-0.44217 0.12963-0.6875 0.28125-0.98132 0.60649-1.7812 1.4735-1.7812 1.9062s0.79993 0.78125 1.7812 0.78125 1.7812-0.83577 1.7812-1.875c0-0.77942-0.45394-1.2013-1.0938-1.0938zm165.75 1.2812c-0.85281 0-2.3154 0.55845-4.0625 1.6875-2.3064 1.4905-2.2563 1.7264 0.34375 1.75 1.6594 0.01502 3.4873-0.76868 4.0938-1.75 0.69779-1.129 0.47781-1.6875-0.375-1.6875zm-40.219 1.0312c-0.49448 0.04095-0.61794 0.21188-0.28125 0.53125 0.89784 0.85166 3.2249 1.9342 5.1875 2.4062 10.379 2.4965 10.511 0.79746 0.15625-2.0312-2.4011-0.65596-4.2384-0.97449-5.0625-0.90625zm-23.531 2.4688c-0.92354-0.01502-0.12208 1.1082 1.7812 2.5s3.8487 2.1513 4.3125 1.6875c0.98196-0.98196-3.6275-4.1474-6.0938-4.1875zm-104.66 5.5938c-0.87173 0.1022-4.458 5.618-5.7188 9.0938-0.62292 1.7173-0.77841 3.125-0.34375 3.125 0.98389 0 6.25-10.027 6.25-11.906 0-0.22805-0.06297-0.3271-0.1875-0.3125zm248.12 1.5c-0.95052 0-1.7188 1.2155-1.7188 2.6875s0.30184 2.6875 0.6875 2.6875 1.1851-1.2155 1.75-2.6875 0.23176-2.6875-0.71875-2.6875zm-150.75 4.0938c-0.13075 0.02053-0.21974 0.06349-0.28125 0.125-0.49207 0.49207 2.1962 2.5098 5.9688 4.5 7.6302 4.0254 11.312 4.6826 11.312 2 0-0.98131-1.2605-1.7812-2.7812-1.7812s-5.2011-1.2682-8.1875-2.8125c-2.6131-1.3513-5.116-2.175-6.0312-2.0312zm53 5.4688c-0.24039 0.03203-0.65827 0.12693-1.2188 0.3125-1.9626 0.64981-6.5774 1.6299-10.281 2.1562s-7.1363 1.6155-7.625 2.4062c-1.3551 2.1926 11.972-0.30492 17.031-3.1875 2.1018-1.1976 2.8149-1.7836 2.0938-1.6875zm-171.31 0.5625c-1.5919-0.12548-9.2188 8.3317-9.2188 10.469 0 0.73818 2.2977-0.97003 5.0938-3.8125s4.7468-5.7603 4.3438-6.5c-0.0486-0.08921-0.11263-0.14788-0.21875-0.15625zm193.91 1.0312c-0.54363 0.04768-1.8093 0.55597-3.2812 1.3438-1.9626 1.0504-3.5625 2.8074-3.5625 3.9062s1.5998 0.55742 3.5625-1.2188 3.5625-3.5332 3.5625-3.9062c0-0.09328-0.10004-0.14089-0.28125-0.125zm-49.469 3.375c-0.97017 0.01198-1.8648 0.13063-2.4688 0.375-1.208 0.48875 0.2123 0.84886 3.1562 0.8125s3.9235-0.42263 2.1875-0.875c-0.86799-0.22618-1.9048-0.32448-2.875-0.3125zm-137.59 3.3125c-0.98132 0-1.7812 0.86702-1.7812 1.9062s0.79993 1.3877 1.7812 0.78125 1.7812-1.4423 1.7812-1.875-0.79993-0.8125-1.7812-0.8125zm79.906 2.7188c-2.5195 0.16956-6.1741 7.5673-7.7188 16.094-1.6815 9.2815 0.80207 6.876 3-2.9062 0.93696-4.1701 2.9846-8.5337 4.5625-9.6875 1.9488-1.425 2.2191-2.4818 0.875-3.3125-0.23279-0.14387-0.45812-0.20504-0.71875-0.1875zm94.219 0.65625c-1.0047 0.11124-3.7446 1.5624-7.125 3.8438-4.5072 3.0418-8.1875 5.948-8.1875 6.4688 0 1.6699 14.982-7.8509 15.688-9.9688 0.09348-0.28042-0.04011-0.38083-0.375-0.34375zm-179.91 0.3125c-0.46941 0.01491-1.3518 0.25072-2.6875 0.8125-1.7173 0.72227-4.3405 1.4611-5.8125 1.625-2.7064 0.30134-3.5625 1.3939-3.5625 4.5312 0 0.94824 2.8154 0.05773 6.25-1.9688 4.9122-2.8982 7.2207-5.0447 5.8125-5zm227.44 1.6875c-0.71729 0-1.4482 1.792-1.625 4-2.4229 30.262-10.489 70.008-22.812 112.47-5.0243 17.312-26.732 73.795-29.781 77.469-1.062 1.2797-1.2404 2.3125-0.375 2.3125 2.6303 0 5.2962-5.4694 16.562-34.344 10.105-25.898 17.785-48.699 20.594-61 0.92834-4.0652 1.5806-4.6842 2.8438-2.6875 1.1332 1.7912 1.6517 0.12952 1.6875-5.4375 0.05854-9.0925 1.6531-16.385 3.3438-15.344 0.62442 0.38461 1.2571-3.2567 1.4062-8.0938s1.5568-10.732 3.125-13.125 2.8437-5.5514 2.8438-7 0.68269-3.0693 1.5312-3.5938 1.3642 4.4627 1.125 11.062c-0.40271 11.112-0.33925 11.323 0.84375 3.0625l1.25-8.9062 0.3125 12.344c0.51826 21.992 1.9091 11.456 2.3125-17.469 0.28612-20.516-0.2048-28.526-1.7812-29.5-1.1904-0.73572-1.6298-2.7027-1-4.3438 1.2984-3.3836-0.4263-11.875-2.4062-11.875zm60.625 5.5312c-5.4154 0.20793-12.875 3.2823-12.875 5.5 0 0.85833 1.8233 0.59248 4.0312-0.59375s6.4311-2.727 9.375-3.4375l5.3438-1.2812-4.8125-0.1875c-0.34019-0.01288-0.70148-0.01386-1.0625 0zm-78.938 5.1562c-1.1984 0.03406-6.0903 1.8753-12.094 4.8125-5.408 2.6459-8.948 5.1111-7.875 5.4688s4.4921-0.67731 7.5938-2.2812 6.0003-2.5309 6.4688-2.0625c1.2312 1.2312-14.898 12.058-20.5 13.75-3.9208 1.1844-4.1208 1.4357-1.0312 1.5625 5.369 0.22028 26.977-14.023 24.031-15.844-1.7574-1.0861-1.5197-1.8617 1.0312-3.3438 2.487-1.4449 3.094-2.0829 2.375-2.0625zm55.375 0c-0.98132 0-1.7812 0.867-1.7812 1.9062s0.79994 1.3877 1.7812 0.78125 1.7812-1.4735 1.7812-1.9062-0.79992-0.78125-1.7812-0.78125zm-211.66 2.125c-0.36509 0.13443-0.58936 1.0894-0.53125 2.5 0.08561 2.0785 0.52418 2.4858 1.0938 1.0625 0.51541-1.288 0.43663-2.8134-0.15625-3.4062-0.14822-0.14822-0.28455-0.20106-0.40625-0.15625zm221.56 2.0312c-0.28488-0.01682-0.632 0.08507-1 0.3125-0.98132 0.60649-1.7812 1.8937-1.7812 2.875s0.79994 1.294 1.7812 0.6875 1.7812-1.8937 1.7812-2.875c0-0.61333-0.30645-0.97197-0.78125-1zm-57.281 1.5c-0.8302-0.02583-4.812 2.6895-9.2188 6.3438-4.7006 3.8979-10.753 8.5021-13.469 10.25-6.5954 4.2446-33.013 5.8001-46.125 2.7188-11.082-2.6042-30.836-11.086-32.656-14.031-0.68188-1.1033-2.5459-2-4.1562-2-4.2485 0-1.1694 2.4438 11 8.7188 7.0346 3.6273 9.6409 5.7791 7.8438 6.4688-1.4823 0.56882-4.5792 3.6084-6.875 6.75-4.0621 5.5586-3.9497 5.5153 3.4688-1.125 5.3215-4.7633 8.5201-6.4075 10.594-5.5 6.198 2.7124 33.619 6.0508 41.312 5.0312 4.4159-0.5852 11.039-2.5856 14.719-4.4375s6.6875-2.6639 6.6875-1.8125c0 2.6541-14.342 14.666-19.781 16.562-2.8474 0.99259-5.1875 2.4782-5.1875 3.3125s2.4154 0.67707 5.3438-0.34375c6.06-2.1125 23.7-18.891 22.281-21.188-0.51405-0.83174 2.6836-4.5324 7.0938-8.2188s7.6772-7.0415 7.25-7.4688c-0.0267-0.0267-0.06965-0.02953-0.125-0.03125zm-82.094 1.5c-0.43275 0-0.78125 0.79993-0.78125 1.7812s0.83577 1.7812 1.875 1.7812 1.419-0.79993 0.8125-1.7812-1.4735-1.7812-1.9062-1.7812zm126.91 1.7812c-0.49066 0-1.7309 1.5999-2.7812 3.5625s-1.5219 3.5625-1.0312 3.5625 1.7621-1.5998 2.8125-3.5625 1.4906-3.5625 1-3.5625zm-210.03 0.3125c-0.09828-0.08932-0.45967 0.40768-1.125 1.4688-0.92298 1.472-2.2332 4.8639-2.875 7.5625-0.69113 2.9061-0.42065 4.9063 0.65625 4.9062 1 0 1.8438-1.9395 1.8438-4.3125s0.43524-5.765 1-7.5625c0.40709-1.2958 0.59828-1.9732 0.5-2.0625zm89.312 0.46875c-0.96083 0.03442-1.625 0.26154-1.625 0.75 0 0.9792 1.8233 2.0536 4.0312 2.4062 4.0423 0.64562 6.1266 0.17894 4.75-1.0625-1.4385-1.2973-5.0424-2.1695-7.1562-2.0938zm128.97 1c-2.0523 0-5.6875 13.664-5.6875 21.375 0 3.9407 0.79322 7.1562 1.75 7.1562s1.2739-2.2553 0.71875-5.0312c-0.55471-2.7736 0.21107-9.2043 1.7188-14.281s2.1895-9.2188 1.5-9.2188zm-85.438 0.1875c-0.88732 0-2.5445 0.53858-5 1.5938-3.4404 1.4784-3.4252 1.5353 0.34375 1.6562 2.15 0.06898 4.3935-0.67492 5-1.6562 0.65213-1.0552 0.54357-1.5938-0.34375-1.5938zm-107.06 2.0312c-0.52304 0.12615-0.4603 1.5631 0.125 4.6875 0.62042 3.312 1.2916 12.942 1.5 21.406 0.36545 14.841 0.41275 14.687 0.96875-4.0938 0.39172-13.232-0.08434-20.09-1.5-21.406-0.49138-0.45678-0.85601-0.65109-1.0938-0.59375zm77.656 0.5c-2.5364-0.00839-3.1521 0.26236-1.4688 0.8125 4.4214 1.445 22.679 2.44 21.25 1.1562-0.40889-0.36739-6.3495-1.124-13.219-1.6562-2.8281-0.21911-5.0407-0.30746-6.5625-0.3125zm-148.78 5.3438c-2.6557 0.04609-6.418 0.85136-7.75 2-0.40888 0.3526 1.7988 0.62501 4.9062 0.625s5.625-0.81248 5.625-1.8125c0-0.60007-1.1878-0.84015-2.7812-0.8125zm164.25 1.4375c-1.472 0-2.6562 0.68224-2.6562 1.5s1.1843 1.4688 2.6562 1.4688 2.6875-0.65098 2.6875-1.4688-1.2155-1.5-2.6875-1.5zm-68.312 1.625c-0.25807-0.0248-0.10659 0.98751 0.375 3.1562 0.54477 2.4533 1.103 5.653 1.25 7.125s0.60968 0.89848 1.0312-1.2812-0.13661-5.4107-1.25-7.1562c-0.76552-1.2002-1.2055-1.8245-1.4062-1.8438zm-17.531 0.8125c-0.16141 0.0225-0.35756 0.18194-0.59375 0.53125-0.99529 1.472-1.8287 7.0282-1.8438 12.344-0.0355 12.556 0.98521 11.158 2.4688-3.4062 0.66813-6.5593 0.6682-9.5663-0.03125-9.4688zm-83.25 0.5625c-1.6768 0.17091-3.8846 1.448-5.3438 3.5312-1.3703 1.9564-3.1644 2.9798-3.9688 2.25s-0.96688 0.00235-0.375 1.6562 0.10902 3.3984-1.0625 3.875-0.53441 0.95377 1.4375 1.0312c4.3223 0.16982 9.1303-6.2413 5.7188-7.625-1.1913-0.48317-0.33297-0.95379 1.875-1.0312s4-0.92495 4-1.9062c0-1.357-0.97709-1.9142-2.2812-1.7812zm213.94 2.3125c-0.34116-0.0264-1.0583 0.18601-2.1875 0.59375-1.8561 0.67024-4.8382 2.6945-6.5938 4.5-2.1457 2.2068-2.421 3.2684-0.875 3.25 2.7835-0.03308 5.0499-1.6157 8.3438-5.8125 1.3844-1.764 1.8811-2.4872 1.3125-2.5312zm30.906 1.25c1.0392 0 1.875 0.79992 1.875 1.7812s-0.34851 1.7812-0.78125 1.7812-1.2998-0.79994-1.9062-1.7812-0.22673-1.7812 0.8125-1.7812zm-134.16 7.25c-0.16585-0.01431-0.38385 0.10259-0.59375 0.3125-0.55974 0.55973 1.421 13.315 4.375 28.375s7.0457 37.037 9.0938 48.812c4.4142 25.381 9.2644 40.06 16.656 50.406 2.9785 4.169 5.755 7.2138 6.1875 6.7812s-0.95278-3.2432-3.0938-6.25c-7.2176-10.136-12.837-27.348-18-55.281-5.7275-30.989-7.464-39.963-11.406-58.125-1.4911-6.8692-2.733-13.225-2.75-14.125-0.01064-0.56221-0.19234-0.8824-0.46875-0.90625zm97.75 1.9688c-1.3819-0.07735-4.9847 0.47304-8.0938 1.4688l-4.4688 1.4375 4.4688 0.3125c4.1198 0.28008 4.1708 0.39623 0.875 1.8125-3.4049 1.4632-3.393 1.5678 0.4375 1.6875 2.333 0.07289 4.0313-0.93729 4.0312-2.4062 0-1.3902 0.9921-2.9426 2.2188-3.4375 1.3862-0.55934 1.3604-0.82859 0.53125-0.875zm-104.03 1c-0.14309 0.0153-0.25489 0.26968-0.28125 0.78125-0.08435 1.6371 0.35686 4.2804 0.96875 5.875 1.8531 4.8292 2.4632 2.0377 0.78125-3.5938-0.59436-1.99-1.154-3.0962-1.4688-3.0625zm-114.22 0.59375c-0.90577 0-2.2392 0.53851-3.9688 1.6562-2.1642 1.3986-1.9025 1.7592 1.3438 1.7812 2.208 0.01503 4-0.79994 4-1.7812 0-1.1177-0.46923-1.6562-1.375-1.6562zm176.25 5.25c-0.98132 0-1.7812 0.83577-1.7812 1.875s0.79993 1.3877 1.7812 0.78125 1.7812-1.4422 1.7812-1.875-0.79993-0.78124-1.7812-0.78125zm100.34 1.5312c2.205-0.05485 4.938 3.2875 4.9688 6.875 0.14301 16.717 17.166 104.51 23.938 123.44 1.5468 4.3237 2.5996 7.9624 2.3438 8.0938s-2.2447-0.02845-4.4062-0.375c-4.2429-0.68029-4.8709-1.9974-7.5938-15.562-0.98487-4.9066-3.3872-14.841-5.3438-22.062s-5.1855-24.498-7.1562-38.375-4.7979-33.175-6.2812-42.906-2.3238-18.051-1.875-18.5c0.41389-0.41389 0.89741-0.61234 1.4062-0.625zm-147.75 0.25c-0.49066 0-0.05038 1.5999 1 3.5625s2.3218 3.5625 2.8125 3.5625 0.01912-1.5999-1.0312-3.5625-2.2906-3.5625-2.7812-3.5625zm-76.25 0.1875c-0.13154-0.04677-0.26956 0.01956-0.46875 0.21875-0.56168 0.56169-1.3492 3.7182-1.75 7-0.56905 4.6596-0.39361 5.1928 0.875 2.4062 1.584-3.4795 2.2645-9.2976 1.3438-9.625zm157.69 0.03125c-0.61983 0.02553-1.141 0.17231-1.4375 0.46875-0.59287 0.59289 0.4629 1.015 2.3438 0.9375 2.0785-0.0856 2.4858-0.49293 1.0625-1.0625-0.644-0.2577-1.3489-0.36928-1.9688-0.34375zm53.531 1.5625c1.45 0 3.9769 14.704 7.0625 41.031 2.9286 24.988 12.096 88.887 16.062 112.03l3.4375 20.156-5.1562 5.0625c-2.8468 2.7828-5.4838 6.9588-5.8438 9.2812-2.1705 14.006-9.9326-60.532-13.969-134.03-1.0508-19.136-2.5712-38.627-3.3438-43.281-1.3645-8.2205-0.99932-10.25 1.75-10.25zm34.594 0.8125c-0.32271-0.12023-0.5625 0.91003-0.5625 2.75 0 2.4533 0.4113 3.4454 0.90625 2.2188s0.49497-3.2109 0-4.4375c-0.12374-0.30666-0.23618-0.49117-0.34375-0.53125zm-65.938 0.25c-0.23165 0.1377-0.375 2.3519-0.375 6.0625 0 5.3972 0.34119 7.6049 0.75 4.9062s0.40881-7.1139 0-9.8125c-0.12775-0.84332-0.26971-1.2188-0.375-1.1562zm-116.22 2.8438c-0.36509 0.13443-0.58935 1.0581-0.53125 2.4688 0.08562 2.0785 0.52418 2.5171 1.0938 1.0938 0.51541-1.288 0.43663-2.8446-0.15625-3.4375-0.14822-0.14822-0.28455-0.16981-0.40625-0.125zm130.59 0.84375c-0.19453 0.33799-0.31251 5.7671-0.3125 14.875 0 13.248 0.28169 18.655 0.625 12.031s0.34329-17.47 0-24.094c-0.10728-2.07-0.22408-2.9661-0.3125-2.8125zm-112.09 3.0312c-0.62303-0.05715 0.70057 3.4656 3.125 8.25 2.5861 5.1034 5.0921 8.9079 5.5625 8.4375 1.0623-1.0623-6.1773-15.17-8.5312-16.625-0.05916-0.03656-0.11471-0.05869-0.15625-0.0625zm164 1.5c-0.2649 0.1106-0.66021 0.59032-1.1875 1.4062-0.95127 1.472-1.735 3.7467-1.75 5.0312s0.76868 1.8252 1.75 1.2188 1.765-2.85 1.75-5c-0.01388-1.9863-0.121-2.8406-0.5625-2.6562zm-210.59 3.7188c-0.50653 0.13063-0.67838 5.4156-0.625 16.875 0.05599 12.021 0.77677 21.844 1.5938 21.844 1.9002 0 1.7339-27.174-0.21875-36.562-0.30454-1.4642-0.55179-2.2074-0.75-2.1562zm147.62 3.375c-0.36509 0.13443-0.58935 1.0894-0.53125 2.5 0.08561 2.0785 0.52419 2.4858 1.0938 1.0625 0.5154-1.288 0.43664-2.8134-0.15625-3.4062-0.14822-0.14822-0.28455-0.20106-0.40625-0.15625zm-117.72 5.0312c-0.38567 0-0.6875 1.2155-0.6875 2.6875s0.76823 2.6563 1.7188 2.6562 1.2524-1.1843 0.6875-2.6562-1.3331-2.6875-1.7188-2.6875zm156.81 0.9375c0.16459 0.18789 0.77451 3.3198 1.9375 9.75 1.3311 7.3599 3.8096 23.037 5.5 34.812s4.5293 27.037 6.3125 33.906 4.2228 17.3 5.4062 23.188c2.4262 12.071 4.2922 15.156 9.125 15.156 5.0391 0 3.9814 4.088-1.9062 7.4375-4.2625 2.425-5.421 4.527-6.375 11.594-1.2398 9.1838-2.2902 13.471-2.5312 10.375-0.07747-0.99531-2.5142-16.641-5.4375-34.781-8.5422-53.007-9.0817-57.072-9.7812-75.812-0.3663-9.8132-1.117-22.643-1.6875-28.531-0.42292-4.3648-0.63783-6.7962-0.5625-7.0938zm-239.34 0.84375c1.887 0 3.8854 1.1862 4.4375 2.625s-0.05611 7.577-1.375 13.656l-2.4062 11.062-3.2188-8.9688c-3.7653-10.503-2.6743-18.375 2.5625-18.375zm191.25 1.9062c-0.13433 0.0725-0.30591 0.3499-0.5 0.78125-0.88313 1.9626-1.681 7.5189-1.75 12.344-0.17057 11.932 0.97375 9.7872 2.2812-4.3125 0.56333-6.0748 0.55083-9.1267-0.03125-8.8125zm3.875 0.28125c-0.24098 0.11266-0.40626 1.9015-0.40625 4.9375 0 4.4159 0.35597 6.2392 0.78125 4.0312s0.42527-5.8233 0-8.0312c-0.1329-0.68999-0.26546-0.98871-0.375-0.9375zm-187.19 0.4375c0.53718-0.04511 1.3613 0.32588 2.5625 0.96875 2.4778 1.326 3.3388 3.2228 2.8125 6.125-0.41937 2.3127-1.2809 8.8826-1.9062 14.625s-1.4864 12.453-1.9375 14.906c-0.81965 4.4579-0.81719 4.4562 3.5-0.71875 4.0593-4.8658 7.4919-16.215 4.3125-14.25-0.80375 0.49675-1.4688 2.588-1.4688 4.6562s-0.44119 3.3088-1 2.75c-1.4559-1.4559 3.0351-23.442 5.0625-24.781 2.857-1.8867 8.4234 0.4759 8.4062 3.5625-0.00891 1.6028-1.2226 13.323-2.7188 26.031s-2.9767 23.352-3.2812 23.656c-0.72265 0.72264-16.017-18.842-18.688-23.906-1.6006-3.0354-1.4583-6.2203 0.625-14.219 1.4749-5.6625 2.6875-12.571 2.6875-15.344 0-2.8111 0.13594-3.9873 1.0312-4.0625zm162.44 1.5938c-0.69448-0.10404-1.9402 1.2133-2.9688 3.2188-2.0431 3.9839-1.9889 4.0381 1.0938 1.0938 1.7735-1.694 2.7231-3.5894 2.125-4.1875-0.07476-0.07476-0.15079-0.11014-0.25-0.125zm-86.094 1.4688c-0.36509 0.13443-0.58936 1.0894-0.53125 2.5 0.08561 2.0785 0.52419 2.4858 1.0938 1.0625 0.51541-1.288 0.43663-2.8134-0.15625-3.4062-0.14822-0.14822-0.28455-0.20106-0.40625-0.15625zm79.75 7.6562c-0.09257 0.01716-0.17002 0.05626-0.28125 0.125-0.88981 0.54993-1.625 2.1797-1.625 3.5938 0 3.6929 1.223 3.1661 2.3125-1 0.44939-1.7185 0.24174-2.8389-0.40625-2.7188zm93.531 4.9062c0.10954-0.05121 0.2421 0.24751 0.375 0.9375 0.42528 2.208 0.42528 5.8233 0 8.0312s-0.78125 0.38469-0.78125-4.0312c0-3.036 0.16527-4.8248 0.40625-4.9375zm3.625 0.09375c0.57396 0.12923 2.608 1.2844 4.9375 2.8125l4.8438 3.1875-4.25 4-4.25 4-0.875-6.8125c-0.46613-3.7432-0.70844-6.9528-0.5625-7.1562 0.01825-0.02543 0.07426-0.04971 0.15625-0.03125zm-238.62 0.0625c-0.52994 0.06581-2.0858 7.4366-5.8125 27.031-0.60883 3.2011-0.35112 4.607 0.625 3.5625 1.8237-1.9516 5.6623-22.943 5.4062-29.531-0.02724-0.70101-0.09646-1.0777-0.21875-1.0625zm13.719 0.9375c-0.2543 0.08762-0.4375 1.4825-0.4375 3.8438 0 3.4346 0.39497 4.8423 0.84375 3.125s0.44878-4.5327 0-6.25c-0.14024-0.53666-0.29066-0.75858-0.40625-0.71875zm124.66 2.75c-0.16075-0.00405-0.37215 0.06248-0.625 0.21875-0.97008 0.59953-1.75 1.8578-1.75 2.7812 0 2.5665 1.2826 1.9973 2.4688-1.0938 0.45697-1.1909 0.3885-1.8941-0.09375-1.9062zm23.438 0.8125c-0.2543 0.08763-0.4375 1.4824-0.4375 3.8438 0 3.4346 0.36371 4.8423 0.8125 3.125s0.44876-4.5327 0-6.25c-0.14024-0.53666-0.25941-0.75858-0.375-0.71875zm4.5 2.0625c-0.98132 0-1.7812 0.86703-1.7812 1.9062s0.79992 1.3878 1.7812 0.78125 1.7812-1.4735 1.7812-1.9062-0.79994-0.78124-1.7812-0.78125zm21.5 1.7812c-1.1937 0-1.6819 10.551-1.4062 30.344 0.23227 16.677 1.0453 30.307 1.7812 30.312 1.3134 0.00968 2.3294-12.619 1.7188-21.406-0.1705-2.4533-0.30084-12.276-0.28125-21.844 0.02191-10.714-0.68623-17.406-1.8125-17.406zm-22.594 3.9062c-0.36509 0.13443-0.58935 1.0894-0.53125 2.5 0.08561 2.0785 0.49293 2.4858 1.0625 1.0625 0.5154-1.288 0.46789-2.8134-0.125-3.4062-0.14822-0.14822-0.28455-0.20106-0.40625-0.15625zm-134.97 5.7812c-0.75438 0.1563-1.3125 2.4884-1.3125 5.6875 0 3.6561 0.53485 6.1214 1.1875 5.4688 1.9291-1.9291 2.2681-9.9817 0.46875-11.094-0.11409-0.07051-0.23598-0.08483-0.34375-0.0625zm206.34 1.375c0.1217-0.04481 0.25803-0.02322 0.40625 0.125 0.59288 0.5929 0.6404 2.1495 0.125 3.4375-0.56956 1.4233-0.97688 0.98476-1.0625-1.0938-0.0581-1.4106 0.16616-2.3343 0.53125-2.4688zm-109.94 10.469c-0.30559 0.10763-0.95937 0.60485-1.9688 1.4375-1.6326 1.3468-2.9688 3.1701-2.9688 4.0312 0 2.7254 1.569 1.683 3.7812-2.4688 1.2123-2.2751 1.6656-3.1794 1.1562-3zm-197.38 12.469c-0.1571-0.0323-0.24985 0.10817-0.25 0.4375-7.7e-4 1.7564 1.6723 6.4573 3.7188 10.469 5.1797 10.153 6.5154 24.874 2.75 30.25-5.1367 7.3336-2.6159 20.128 5.25 26.656 1.6708 1.3866 4.553 6.0516 6.4062 10.375s3.7982 7.4205 4.3438 6.875 0.12332-2.6116-0.9375-4.5938-1.9062-4.4542-1.9062-5.5c0-2.4071 6.5569-2.5105 8.0312-0.125 0.60649 0.98132 1.9564 1.7812 3 1.7812 1.1723 0 1.0066-1.0476-0.40625-2.75-1.9116-2.3033-1.6579-3.1818 1.5625-5.4375 2.1189-1.4841 3.875-3.622 3.875-4.7188s-1.885-0.22746-4.1562 1.9062c-6.3991 6.0116-14.035 5.1036-20.656-2.4375-6.0607-6.9028-7.0676-13.843-2.8125-19.469 4.6155-6.1022 3.3698-22.286-2.7188-35.156-2.3913-5.0549-4.413-8.4225-5.0938-8.5625zm100.5 0.75c-0.32271-0.12023-0.5625 0.87877-0.5625 2.7188 0 2.4533 0.41128 3.4766 0.90625 2.25s0.49496-3.2421 0-4.4688c-0.12374-0.30666-0.23618-0.45992-0.34375-0.5zm-19.875 3.4062c-0.16075-0.00405-0.37215 0.06248-0.625 0.21875-0.97008 0.59953-1.75 1.8579-1.75 2.7812 0 2.5665 1.2826 1.9972 2.4688-1.0938 0.45697-1.1909 0.3885-1.8941-0.09375-1.9062zm106.03 1.5625c-0.39033-0.06516-1.047 0.45951-1.8438 1.5-1.1954 1.5611-4.5873 4.1298-7.5312 5.7188-3.1656 1.7085-4.1731 2.9265-2.4688 2.9688 3.6129 0.08957 12.295-6.6216 12.219-9.4375-0.01249-0.46207-0.1408-0.7109-0.375-0.75zm-166.41 5.5c0.28051-0.0248 0.645 0.20751 1.0938 0.65625 1.4112 1.4112 1.4348 2.889 0.0625 5.25-1.6786 2.888-1.9212 2.6454-1.9688-1.9688-0.0272-2.6389 0.19538-3.8829 0.8125-3.9375zm5.5625 2.9688c0.38567 0 0.6875 1.2155 0.6875 2.6875s-0.76823 2.6562-1.7188 2.6562-1.2836-1.1843-0.71875-2.6562 1.3643-2.6875 1.75-2.6875zm2.4688 1 3.5938 3.5625c3.4662 3.4662 3.505 3.9186 0.65625 12.469-1.622 4.8683-3.7564 9.8359-4.7188 11.062s-2.9213 2.25-4.3438 2.25c-2.1009 0-2.3379-1.9473-1.3438-10.281 0.67311-5.6426 1.9336-11.027 2.8125-11.969 1.4592-1.5635 0.51043 12.585-1.2188 18.219-0.37651 1.2266 0.0159 2.2187 0.84375 2.2188 1.9788 0 3.7188-9.0916 3.7188-19.344v-8.1875zm18.031 3.125c-0.43004 0.1828 0.11058 1.9992 1.75 5.0625 1.0608 1.9822 2.3325 3.1988 2.8438 2.6875s-0.33418-2.7868-1.9062-5.0312c-1.4177-2.0241-2.353-2.8609-2.6875-2.7188zm14.312 5.1562c-2.0077 0.00928-5.5625 1.9788-5.5625 3.4688 0 0.91143 1.6708 0.75229 3.7188-0.34375s3.3718-2.347 2.9375-2.7812c-0.23414-0.23414-0.63044-0.34589-1.0938-0.34375zm-46.25 5c-0.85306 0-1.6834 2.8154-1.8125 6.25s0.40538 6.2188 1.1562 6.2188 1.5499-2.7841 1.7812-6.2188-0.27194-6.25-1.125-6.25zm242.09 3.5625c-2.1566 0-1.984 3.0828 0.5625 10.125 1.1785 3.259 2.8608 5.9375 3.75 5.9375s1.0157-1.4077 0.28125-3.125-1.7242-5.3326-2.1875-8.0312-1.5363-4.9062-2.4062-4.9062zm-102.62 0.34375c-0.3651 0.13443-0.58936 1.0581-0.53125 2.4688 0.08561 2.0785 0.5242 2.5171 1.0938 1.0938 0.51541-1.288 0.43662-2.8446-0.15625-3.4375-0.14822-0.14822-0.28455-0.16981-0.40625-0.125zm1.5312 7.4688c-0.05177 0.01327-0.10314 0.02968-0.15625 0.0625-0.84971 0.52514-1.161 2.992-0.6875 5.4688 1.1704 6.1224 2.2188 5.655 2.2188-0.96875 0-2.8143-0.59848-4.7616-1.375-4.5625zm79.219 0c-2.9582-0.0495-14.957 8.6417-17.781 13.406-1.8076 3.0495-2.5788 5.5313-1.7188 5.5312s3.0074-2.4346 4.7812-5.4375 5.9682-6.7802 9.3125-8.375 6.0625-3.6321 6.0625-4.5312c0-0.40058-0.23364-0.58668-0.65625-0.59375zm-153.44 5.2812c-0.56547 0.39532-2.4756 6.4897-4.4062 14.188-2.0594 8.2109-4.27 16.493-4.9375 18.375-0.83216 2.3463-0.64846 2.8484 0.625 1.625 2.0215-1.942 10.022-32.978 8.8125-34.188-0.0255-0.0255-0.05605-0.02635-0.09375 0zm178.25 5.8125c-0.59806 0.01106-1.5291 0.36255-2.75 1.125-1.9626 1.2257-3.5625 2.8485-3.5625 3.5938 0 2.0365 2.5833 1.6354 5-0.78125 2.3452-2.3452 2.6282-3.9618 1.3125-3.9375zm-242.78 1.4062c0.96256 0.08274 2.6629 1.1895 5.0312 3.4688 3.2266 3.1052 5.5906 6.264 5.25 7-1.2706 2.746-5.4313 1.1916-8.2188-3.0625-3.1638-4.8286-3.6668-7.5442-2.0625-7.4062zm150.09 10.031c1.3917 0 2.5313 1.5084 2.5312 3.375 0 4.2496-8.7079 7.6769-13.156 5.1875-1.6804-0.9404-5.4596-1.1785-8.4062-0.53125-3.3277 0.73088-6.3729 0.33976-8.0625-1.0625-2.2156-1.8388-3.627-1.7182-7.5938 0.625-2.6786 1.5823-5.8398 2.2796-7 1.5625s-7.6826-1.1548-14.5-0.96875-13.347 0.91236-14.5 1.625c-1.593 0.98454-1.6012 0.40631-0.0625-2.4688 2.2265-4.1603 8.845-5.0613 12.25-1.6562 1.6653 1.6653 2.616 1.6653 4.2812 0 3.0415-3.0415 11.571-2.6405 12.812 0.59375 0.88335 2.302 1.5672 2.1516 4.625-0.90625 4.1114-4.1114 7.3128-4.5622 10.406-1.4688 1.4168 1.4168 2.125 1.5015 2.125 0.21875 0-1.0662 2.5731-2.3196 5.7188-2.7812 4.2596-0.62517 6.4869 0.07101 8.6562 2.75 2.8358 3.5021 7.0312 2.9737 7.0312-0.875 0-1.1965-0.96858-1.0569-2.6562 0.34375-1.5426 1.2803-2.6875 1.4506-2.6875 0.40625 0-1.9668 4.1455-3.9688 8.1875-3.9688zm9.125 0.5c0.71872-0.00676 1.5483 0.73583 3.0625 2.25 2.8901 2.89 3.5713 2.9307 7.9062 0.4375 4.6768-2.6898 9.1875-2.5226 9.1875 0.34375 0 0.80731-3.4697 2.6459-7.7188 4.0938-6.9837 2.3796-7.9098 2.37-9.5625-0.25-1.561-2.4747-2.2434-2.549-4.75-0.46875-3.5176 2.9194-3.8858 0.40843-0.59375-4.0938 1.1253-1.539 1.75-2.3057 2.4688-2.3125zm43.344 1.1875c4.9138-0.00882 10.695 0.9775 11.375 2.75 0.56485 1.472 1.9302 2.6875 3.0625 2.6875 1.5444 0 1.5587-0.62823 0.03125-2.4688-3.0102-3.6271 6.901-3.3452 11.031 0.3125 2.6626 2.3579 4.1662 2.4893 9.0625 0.71875 8.1874-2.9606 9.1894-2.7458 11.594 2.5312 3.207 7.0387-0.25876 10.257-9.6562 8.9688-8.2863-1.1358-12.773 1.4248-9.4688 5.4062 1.4338 1.7277 1.4121 2.375-0.09375 2.375-2.8318 0-4.3203-4.5506-3.0938-9.4375 0.89632-3.5712 1.92-3.9653 8.4375-3.3438 5.0647 0.48298 6.6386 1.1922 4.9688 2.25-1.8542 1.1746-1.5809 1.5625 1.125 1.5625 1.9626 0 4.778-0.78795 6.25-1.7188 2.3544-1.4888 2.3113-2.0317-0.28125-4.625-2.3104-2.311-4.0474-2.5658-8.0312-1.2188-3.2679 1.105-6.8829 1.0831-10.125-0.03125-3.4917-1.2002-5.6421-1.1079-7.0312 0.28125-2.8793 2.8793-6.7983 2.4696-9.3125-0.96875-2.0095-2.7482-2.7302-2.7712-9.3438-0.125-6.1742 2.4704-7.6425 2.5297-10.719 0.375-3.0582-2.142-4.0162-2.1255-6.9062 0.0625-4.9314 3.7334-5.9798 3.2284-3.6562-1.7812 2.4002-5.175 7.8149-5.824 11.125-1.3438 1.9672 2.6627 2.6519 2.7501 4.6562 0.625 1.6781-1.7792 1.6861-2.149 0.09375-1.25-1.2266 0.69254-2.2188 0.41425-2.2188-0.625 0-1.3561 3.3032-1.9619 7.125-1.9688zm-73.125 1.875c-0.98131 0-1.8125 0.83576-1.8125 1.875s0.83119 1.3877 1.8125 0.78125 1.7812-1.4423 1.7812-1.875-0.79993-0.78125-1.7812-0.78125zm125.78 3.5625c1.8854 0 2.6563 1.8935 2.6562 6.4375 0 5.1576-1.3216 7.6709-6.5938 12.5-3.6264 3.3216-7.2417 6.0312-8.0312 6.0312-2.0404 0-1.7584 17.488 0.40625 25.281 1.8146 6.5333 8.6999 16.615 8.8125 12.906 0.03265-1.0759-1.11-4.2756-2.5312-7.125s-2.9271-8.3872-3.3438-12.312-0.38229-5.673 0.0625-3.875c0.76919 3.1094 0.99227 3.1045 4.25 0.15625 1.8838-1.7048 3.4062-4.235 3.4062-5.625s1.2155-3.7155 2.6875-5.1875 2.7752-5.6401 2.9062-9.25c0.46602-12.83 3.0209 10.141 3.1875 28.688 0.15387 17.124-0.60278 19.491-4.8438 15.25-3.5022-3.5021-2.4559 0.0943 1.6562 5.6562 2.3805 3.2198 4.1129 8.7466 4.5938 14.656 0.42432 5.2149 1.55 11.523 2.5 14.031 1.2432 3.2828 1.0344 5.9043-0.75 9.3438-2.8489 5.4913-5.3007 4.5827-3.125-1.1562 2.0498-5.4068-0.38012-28.673-3.375-32.281-1.3734-1.6548-4.6397-4.0876-7.25-5.4375-3.0471-1.5757-6.4634-6.313-9.5625-13.219-4.1464-9.2394-4.761-12.718-4.3125-24.625 0.46093-12.239 0.94308-13.926 4.0938-14.5 5.6875-1.0354 9.8125-5.7888 9.8125-11.281 0-3.3226 0.9357-5.0625 2.6875-5.0625zm-120.25 3.5625c2.7502 0 3.3248 1.2393 3.1562 6.6875-0.11383 3.68-0.55122 5.2798-1 3.5625-1.117-4.2744-4.125-3.9265-4.125 0.46875 0 1.9626 0.79992 3.5625 1.7812 3.5625 3.5181 0 0.13278 60.045-5.375 95.438-0.91627 5.8879-2.1288 18.749-2.6875 28.562s-1.3194 21.044-1.7188 24.969c-0.57265 5.6282-0.41242 6.2051 0.78125 2.6875 0.83252-2.4533 2.4241-15.315 3.5625-28.562s2.8425-26.878 3.7812-30.312 2.4661-13.865 3.375-23.188c1.343-13.775 1.4993-9.9502 0.875 20.5-0.4225 20.608-1.2999 51.13-1.9375 67.812s-0.72268 29.928-0.21875 29.438c2.1042-2.0488 5.438-97.539 5.0938-145.88l-0.375-52.188h9.5l-0.65625 56.125c-0.43747 38.914-0.03615 56.714 1.3125 58.062 3.7108 3.7108 5.293-2.4035 4.375-16.938l-0.875-14.281-1.0625 15.156-1.0312 15.188-0.34375-16.5c-0.2714-13.475 0.14185-16.5 2.2812-16.5 1.4412 0 2.2851-1.0233 1.8438-2.25s-1.1042-19.639-1.4688-40.906c-0.61334-35.783-0.4478-38.706 2.4688-39.469 1.9602-0.51259 3.4655 0.32567 3.9688 2.25 0.90551 3.4626-1.4881 123.54-3.0312 152.09-0.54586 10.1-1.4072 29.221-1.9375 42.469-1.1598 28.977-3.8055 70.121-6.2812 98.125-0.99766 11.285-2.1828 24.915-2.6562 30.312s-1.6808 22.258-2.6875 37.469-2.2408 32.487-2.7188 38.375c-1.538 18.949-4.6734 53.405-5.2812 58-0.32453 2.4533-0.6693 11.476-0.75 20.062l-0.125 15.594h-5.1562c-8.7743 0-9.4863-2.6028-8.4375-30.656 0.52498-14.042 0.648-24.316 0.25-22.844s-1.259 12.94-1.9062 25.5c-0.78876 15.305-1.8147 22.624-3.125 22.188-2.7644-0.92149-1.4973-67.442 2.3125-120.84 0.87512-12.266 1.5605-29.128 1.5312-37.469l-0.0625-15.188-2.625 14.281c-1.4458 7.8506-2.3414 16.817-2 19.938s-0.00501 5.2923-0.78125 4.8125-1.4062 0.37638-1.4062 1.9062 0.9921 2.7975 2.2188 2.8125c1.5364 0.01882 1.4346 0.5312-0.34375 1.6562-2.7207 1.7213-4.4507 18.864-2.25 22.312 2.2179 3.4759 1.3609 11.688-1.2188 11.688-2.0376 0-2.277-4.3191-1.4375-24.531 1.0601-25.526 5.7855-100.01 7.3438-115.53 0.49267-4.9066 1.3641-18.152 1.9062-29.438s2.5398-51.438 4.4375-89.219 3.8523-82.826 4.375-100.12 1.4518-32.752 2.0625-34.344 2.6424-2.9063 4.5-2.9062zm-29.688 0.28125c0.03068 0.00118 0.0352 0.00395 0.0625 0.03125 0.43676 0.43676 0.01679 5.5788-0.9375 11.406-1.6332 9.9733-2.5781 102.13-1.0312 100.53 0.39563-0.40889 1.276-24.01 1.9688-52.469s2.0118-52.966 2.9062-54.438c1.0581-1.7413 1.2335-0.32208 0.5 4.0312-0.74037 4.3941-0.4584 6.6875 0.84375 6.6875 1.0905 0 1.985-2.2076 2-4.9062s0.89482-6.1218 1.9375-7.5938c1.3968-1.972 1.6401-0.32328 0.90625 6.25-2.346 21.014-8.2964 100.89-9.9062 132.94-2.8193 56.12-8.9182 166.07-9.75 175.75-2.1311 24.804-4.8145 61.525-7.4062 101.69-1.5831 24.533-3.2881 49.009-3.7812 54.406-0.90278 9.8805-2.8197 14.287-4.8125 11.062-0.59241-0.95854 0.11515-19.682 1.5625-41.625 5.4692-82.916 8.0352-130.42 7.8125-144.69l-0.21875-14.75-1.4062 12.469c-0.77032 6.8692-2.3748 28.945-3.5625 49.062-2.7607 46.761-2.9276 49.843-3.25 66.781-0.14786 7.7688-0.6034 13.772-1.0312 13.344-1.4163-1.4163-2.8012-39.063-1.4375-39.062 0.73535 0 1.3937-2.2076 1.5-4.9062 0.98814-25.074 7.0711-110.44 7.5-105.25 0.3058 3.7005 1.3292 6.2566 2.25 5.6875 0.95205-0.5884 1.4994-12.713 1.2812-28.125-0.1912-13.507-0.31139-20.116-0.4375-20.625-0.11294 0.57842-0.25961 5.5813-0.5 14.5-0.31078 11.53-1.1389 20.936-1.8438 20.938s-0.91497-13.437-0.46875-29.875 1.0939-26.068 1.4375-21.406 1.385 8.4688 2.3125 8.4688c1.019 0 1.7451-21.723 1.8438-54.875 0.08976-30.176 0.37718-58.459 0.65625-62.875s0.77618-18.877 1.0938-32.125l0.5625-24.094 1.0938 20.531c0.90484 17.312 1.1434 13.97 1.5938-21.406 0.29356-23.061 1.2448-43.953 2.0938-46.406 1.1093-3.2057 1.2361-2.237 0.5 3.375-1.3199 10.062 2.023 8.4322 3.6562-1.7812 0.61134-3.8231 1.4461-6.6739 1.9062-6.6562zm101.56 0.25c0.51668-0.04433 1.3827 3.0088 2 7.125 0.65841 4.3906 0.89746 9.48 0.5 11.312s-1.3661-1.3373-2.125-7.0625-0.96672-10.815-0.46875-11.312c0.03112-0.03112 0.0593-0.05954 0.09375-0.0625zm-120.5 0.09375c4.2972-0.06887 9.1875 1.322 9.1875 3.125 0 0.87493-0.22342 1.4911-0.46875 1.3438s-4.0528-0.76438-8.4688-1.375c-6.5537-0.90622-7.3092-1.3816-4.1562-2.5 1.0957-0.38868 2.4739-0.57079 3.9062-0.59375zm34.156 0.25c0.22487 0.03026 0.44774 0.18194 0.625 0.46875 0.65928 1.0668 0.36334 4.0567-0.625 6.6562-2.4433 6.4265-2.238 8.0625 0.90625 8.0625 1.8604 0 2.6562-1.8884 2.6562-6.1562 0-3.3767 0.79992-6.6122 1.7812-7.2188 2.1403-1.3228 2.1483 0.96883 0.03125 11.594-0.87991 4.4159-1.7644 24.477-1.9688 44.594s-1.3614 53.039-2.5938 73.156-3.1693 55.055-4.2812 77.625-3.1398 56.292-4.5312 74.938-3.0367 43.921-3.625 56.188-1.385 26.083-1.7812 30.688-1.6165 31.096-2.7188 58.875c-1.7448 43.973-2.3207 54.226-3.3125 60.75-0.3071 2.02-14.097 1.6301-15.375-0.4375-0.61191-0.9901-0.70848-3.1977-0.21875-4.9062s2.1888-24.401 3.75-50.406 4.022-63.727 5.4688-83.844c3.0928-43.005 6.5777-102.03 11.531-194.5 3.1804-59.372 5.5151-92.498 7.9062-112.41 0.41253-3.4346 0.42526 8.0695 0.03125 25.562-0.55426 24.608-0.22676 31.665 1.4688 31.094 1.4766-0.49728 2.1324-4.7836 2-13.094-0.96122-60.31-0.80462-80.734 0.625-84.438 0.73964-1.9163 1.5754-2.9345 2.25-2.8438zm56.781 0.09375c0.12696-0.01015 0.25347 0.06804 0.40625 0.21875 3.7892 3.7379 5.5747 34.498 4.6562 80-1.6045 79.488-9.2895 254.89-13.719 313.12-1.0075 13.248-2.4593 41.011-3.25 61.688s-1.9828 38.43-2.625 39.469c-1.9244 3.1138-8.0695 3.9022-10.219 1.3125-1.1042-1.3305-1.5507-4.6362-1-7.375s1.8452-16.055 2.875-29.562 2.1818-27.937 2.5938-32.094c2.3874-24.085 3.0039-49.861 1.1562-48.719-1.1444 0.70732-1.9612 6.6245-1.9688 14.062-0.01356 13.448-4.5088 78.731-6.3125 91.781-2.6574 19.227-3.63 2.615-3.3125-56.219 0.29891-55.391 2.3907-104.7 5.2188-122.66 1.4988-9.5141 6.0318-87.822 8.0938-140.06 1.1039-27.968 2.6532-59.674 3.4688-70.469 2.3161-30.657 0.17928 92.965-2.7188 157-2.7646 61.088-3.7091 105.7-2.25 107.16 0.52167 0.52167 1.5024-20.163 2.1562-45.969s2.4179-68.183 3.9375-94.188c2.072-35.459 2.5512-68.607 1.9375-132.5-0.74063-77.114 0.03242-96.267 3.1875-79.375 0.59568 3.1893 1.6371 24.806 2.3125 48.031 1.1264 38.73 2.0223 46.759 4.9375 43.844 1.6716-1.6715 1.7616-31.658 0.1875-67.344-1.0169-23.053-0.97726-31.058 0.25-31.156zm18.625 1.5625c4.2684 0.10021 5.2278 44.129 2.0625 98.875-1.9298 33.378-1.5161 43.656 1.6875 42.594 3.0166-1.0003 5.5862-100.66 3.1562-122.5-1.7954-16.135-1.4631-24.825 0.46875-12.312 0.50791 3.2896 1.3825 9.0115 1.9688 12.719s1.8495 6.2634 2.7812 5.6875c1.6341-1.0099 2.3483 32.969 1.8125 84.812-0.38507 37.261-8.1075 240.45-9.9375 261.5-0.51744 5.951-0.98321 30.043-1.0625 53.531s-0.69572 48.318-1.3438 55.188l-1.1562 12.5-6.25 0.46875c-10.33 0.77034-11.39-0.95867-9.8438-15.906 2.3838-23.037 4.2472-76.562 6.0625-173.69 0.97209-52.01 2.2327-104 2.8125-115.53s0.35022-20.969-0.5-20.969c-1.4502 0-3.0005 56.249-4.5938 165.94-0.62881 43.291-2.6799 93.36-5.6562 137.84l-1.1562 17.375-5.625-0.25c-4.2-0.18204-4.6013-0.42071-1.5938-1 3.6395-0.701 4.0487-1.8815 4.375-12.688 0.48003-15.898-0.89727-44.031-2.1562-44.031-0.1427 0-0.54973-1.5622-0.90625-3.4688-0.87009-4.6529 0.99176-7.322 3-4.3125 1.0194 1.5277 1.1324 0.44044 0.3125-2.9375-2.0047-8.2596-1.4878-39.059 1.75-104.38 1.6296-32.874 4.2003-92.703 5.7188-132.94 3.2488-86.082 3.7988-92.747 4.1562-50.406 0.14704 17.418 0.89093 31.688 1.6562 31.688 1.6305 0 1.4028-116.72-0.28125-145.41-0.85831-14.622-0.66708-18.5 0.75-15.188 1.0462 2.445 2.7048 18.082 3.6562 34.75s2.4157 31.009 3.2812 31.875c4.1984 4.1984 4.3308-48.382 0.15625-62.938-0.8836-3.0809-0.89041-5.8247 0-6.375 0.14452-0.08932 0.29981-0.12823 0.4375-0.125zm-122.41 0.4375c1.6079 0.00555 3.4018 0.48716 5.3438 1.5 2.7866 1.4534 7.4936 2.7691 10.438 2.9062 3.9148 0.1824 2.9622 0.66037-3.5625 1.8125-4.9066 0.86642-10.537 1.7644-12.5 2s-4.4464 1.019-5.5312 1.7188c-1.3196 0.85118-1.6955-0.20329-1.125-3.1875 0.84189-4.404 3.4-6.7622 6.9375-6.75zm148.59 0.59375c1.0392 0 1.9062 0.79993 1.9062 1.7812s-0.37976 1.7813-0.8125 1.7812-1.2685-0.79993-1.875-1.7812-0.25799-1.7813 0.78125-1.7812zm-8.1875 1.8438c0.92914-0.39982 3.2449 6.3142 4.7188 16 3.2761 21.53 4.356 210.66 1.875 329.22-1.2118 57.91-2.4802 108.08-2.8125 111.5s-0.65612 12.042-0.71875 19.156c-0.10953 12.439-0.28189 12.937-4.4062 12.938-4.0706 0-4.2679-0.45366-3.625-9.3438 0.37257-5.1519 1.0431-20.151 1.4688-33.312 0.61433-18.993 0.2462-24.441-1.75-26.438-2.1639-2.1639-2.5 0.60775-2.5 19.906 0 13.145-0.71468 22.438-1.7188 22.438-1.0557 0-1.3387-8.2197-0.71875-21.438 0.73154-15.597 0.4031-22.177-1.1875-24.094-1.3388-1.6132-1.4486-2.6562-0.3125-2.6562 1.0524 0 2.1016-5.3855 2.4375-12.469 0.32585-6.8714-0.01401-12.502-0.75-12.5s-1.3437-1.2514-1.3438-2.7812 0.79995-2.294 1.7812-1.6875c1.041 0.64335 1.8125-1.1594 1.8125-4.3438 0-3.0019-0.83117-5.4688-1.8125-5.4688s-1.6916-2.2076-1.5938-4.9062l0.1875-4.9062 1.5 4.4688c0.99732 2.9515 1.2934-0.05167 0.875-8.9062-0.34774-7.3599 0.06415-27.452 0.90625-44.625s2.4364-57.326 3.5625-89.219c4.1419-117.3 5.0562-124.11 4.2812-32.094-0.40907 48.575-1.248 93.112-1.875 99-0.81479 7.6518-0.60125 10.222 0.78125 8.9375 1.3113-1.2184 2.6055-39.734 3.9688-119.56 1.9332-113.21 1.4807-138.97-3.0312-175.72-0.57781-4.7064-0.48669-6.8843 0-7.0938zm-197.94 1.8125c1.5907-0.13668 2.8438 0.66733 2.8438 2.375 0 1.3576-2.0154 2.8748-4.4688 3.3438-4.8647 0.92993-5.6479-0.32088-2.3125-3.6562 1.267-1.267 2.7003-1.9562 3.9375-2.0625zm20.188 0.6875c0.0398 0.00167 0.09825 0.03575 0.125 0.0625 0.42806 0.42807-1.0016 3.6075-3.1562 7.0938-5.34 8.6404-6.5831 8.0405-1.625-0.78125 2.0624-3.6697 4.0592-6.4 4.6562-6.375zm55.75 3.6562c1.6707-0.23447 1.8333 3.3779 1.0625 17.438-1.6991 30.994-2.8467 53.101-6.5312 126.22-1.0632 21.098-2.2188 42.375-2.5625 47.281s-1.0641 21.768-1.625 37.469c-1.015 28.413-1.8427 44.179-3.7188 71.375-2.8742 41.665-6.4372 107.02-7.25 132.94-0.50785 16.192-1.0902 32.637-1.3125 36.562-0.31738 5.6047-1.175 7.2262-3.9375 7.5625-6.4516 0.78545-9.9829-2.7818-8.9375-9.0312 0.52236-3.1226 1.7794-23.733 2.7812-45.812s2.1815-46.171 2.625-53.531c1.6812-27.902 2.7964-80.829 3.6875-175.16 0.50682-53.648 1.6934-107.01 2.625-118.62 2.923-36.429 5.1771-54.761 7.7812-63.062l2.5312-8.0312 0.15625 8.0312c0.08651 4.4159-1.0403 19.293-2.5 33.031s-2.7011 31.784-2.75 40.125-1.1068 23.795-2.3438 34.344-1.6059 19.187-0.8125 19.188 1.5003 1.4077 1.5625 3.125c0.09597 2.6495 0.33352 2.5906 1.5625-0.4375 3.1198-7.6869 8.8311-81.58 6.0938-78.844-0.79886 0.79869-1.9401 11.229-2.5312 23.188l-1.0625 21.75-0.28125-17.844c-0.14454-9.8132 0.55093-23.405 1.5312-30.188s2.4662-22.251 3.3125-34.406 2.049-22.611 2.6562-23.219c3.0107-3.0107 3.2677 3.6238 1.1875 29.375-1.2488 15.459-1.9772 31.325-1.625 35.25 0.52629 5.8653 4.2018-33.082 5.5-58.375 0.18953-3.6929 1.3961-7.0742 2.75-7.5938 0.12481-0.04789 0.26362-0.07812 0.375-0.09375zm132.19 2.4688c0.26828-0.07528 0.64668 0.13428 1.125 0.53125 1.288 1.069 2.3438 3.3083 2.3438 5s1.1098 5.4319 2.4688 8.2812c1.3976 2.9306 2.9076 14.081 3.5 25.688 0.57597 11.285 2.249 37.777 3.6875 58.875s3.2232 50.405 3.9688 65.125c1.4611 28.849 1.067 311-0.4375 313.44-1.1895 1.9246-8.0647 1.853-11.188-0.125-1.8164-1.1505-2.1844-4.0422-1.4062-11.125 0.57827-5.2633 1.4313-31.254 1.875-57.75l0.78125-48.188-1.6562 38.375c-2.9526 68.4-3.6533 78.5-5.5938 78.5-1.286 0-1.4673-14.843-0.5625-47.719 1.7411-63.259 2.7494-143.27 3.125-246.66 0.34456-94.857 1.925-83.69 4.2812 30.312 0.78088 37.781 1.9827 65.072 2.6562 60.656 1.5012-9.8415 0.53458-76.094-1.9062-130.25-0.99513-22.08-2.6633-58.586-3.6875-81.156s-2.4659-46.056-3.2188-52.156c-0.83871-6.7966-0.96108-9.4304-0.15625-9.6562zm-162.34 1.5c1.2561-0.04114 2.4633 0.5349 3.875 1.8125 1.9196 1.7372 3.125 2.0477 3.125 0.78125 0-1.1334 1.2155-2.0625 2.6875-2.0625 5.256 0 2.5441 4.8689-4.4688 8.0312-3.9253 1.77-7.125 4.3021-7.125 5.625 0 2.9688 2.1659 3.0841 4.9688 0.28125 3.5304-3.5304 4.4176-0.27183 1.25 4.5625-3.0368 4.6348-2.1766 9.2814 1.3125 7.125 2.0845-1.2883 0.99122 24.33-1.2812 30.031-1.4463 3.6283-9.8125 9.4375-9.8125 6.8125 0-1.0172 0.80036-3.2648 1.7812-4.9688s2.5826-5.3361 3.5625-8.0938 2.5793-4.5139 3.5625-3.9062c2.5821 1.5958 2.3483 0.17959-3.5625-20.312-6.2424-21.642-6.3642-22.666-2.25-24.969 0.84643-0.47369 1.6214-0.72532 2.375-0.75zm169.47 0.53125c1.0392 0 1.383 0.85071 0.75 1.875s-0.17439 3.0473 1.0312 4.5c2.6934 3.2453 1.3616 5.0804-1.5625 2.1562-2.6228-2.6228-2.7734-8.5312-0.21875-8.5312zm-225.66 0.5625c1.2112-0.16369 2.4845 0.8469 3.0312 2.9375 0.52373 2.0028 0.84096 3.5513 0.6875 3.4375s-1.7284-0.60325-3.5-1.0625-2.9547-1.6984-2.5938-2.7812c0.51801-1.554 1.433-2.4039 2.375-2.5312zm30.656 1.5938c0.77572-0.01344 0.53739 1.962-0.15625 7.1875-1.2837 9.6712-8.2273 38.826-9.875 41.5-0.6047 0.98132-1.11 2.5379-1.125 3.4375-0.06954 4.1633-4.74 2.5033-8-2.8438-4.0997-6.7244-4.1785-7.3426-3.6562-22 0.48313-13.559 1.4736-15.057 5.625-8.5 3.0738 4.8547 3.1194 5.8431 0.6875 12.25l-2.625 6.9688 0.96875-9.375c0.63294-6.0605 0.29466-9.375-0.9375-9.375-1.1684 0-1.9062 4.8375-1.9062 12.5 0 6.8692 0.44322 12.469 0.96875 12.469 1.5692 0 7.1539-14.328 10.594-27.156 1.7689-6.597 4.8414-13.412 6.8125-15.156 1.329-1.1759 2.1596-1.8982 2.625-1.9062zm16.969 3.9062c0.44832-0.44832 2.1144 6.1828 3.6875 14.75s2.6629 15.775 2.4375 16c-0.95306 0.95305-9.1165-9.3021-8.6562-10.875 0.27771-0.94911 0.79538-5.6392 1.125-10.406s0.95793-9.0204 1.4062-9.4688zm-26.906 2.875c0.09061 0.00225 0.14371 0.03923 0.1875 0.09375 0.35032 0.43614-0.23696 3.7691-1.3125 7.4375-1.8834 6.4239-2.0376 6.549-4.3125 2.9062-2.0584-3.296-1.895-4.2613 1.3125-7.4688 1.7713-1.7713 3.4908-2.9845 4.125-2.9688zm22.281 0.03125c1.2036-0.12538 1.7676 2.2892 1.0938 6.6562-1.3158 8.5268-1.8645 9.0607-3.8438 3.8125-0.96591-2.5611-0.94931-5.535 0.03125-7.4062 1.0548-2.0129 1.9966-2.9873 2.7188-3.0625zm220.19 1.75c2.0927 0 5.6641 14.035 4.4062 17.312-0.71661 1.8675-0.21718 2.3752 1.6562 1.6562 3.923-1.5054 3.4068 3.5424-1.125 10.875-2.1083 3.4113-4.4523 8.7294-5.1875 11.812-0.92379 3.874-1.4465 4.4973-1.7188 2.0312-0.21666-1.9626-0.3478-4.038-0.28125-4.625s0.27053-9.6097 0.4375-20.062 0.9863-19 1.8125-19zm-229.72 0.25 4.2812 9.2188c3.8745 8.3627 4.1141 10.217 2.4688 19.938-2.8772 16.998-3.5478 25.875-1.9688 25.875 0.80421 0 2.0136-6.2073 2.7188-13.812s1.8315-15.326 2.5-17.156c1.0926-2.9909 1.7105-2.7481 5.9688 2.3125l4.7188 5.625-3.6562 9.2812c-2.0087 5.1122-6.7556 13.312-10.562 18.219s-10.24 12.553-14.281 16.969l-7.3438 8.0312 1.0625-15.969c0.5901-8.8524 3.9809-27.684 7.5938-42.25l6.5-26.281zm30.406 7.5625c0.63981 0.02834 1.0938 0.72759 1.0938 1.875 0 1.5299-0.79993 2.7812-1.7812 2.7812s-1.7812-0.7641-1.7812-1.6875 0.79993-2.1748 1.7812-2.7812c0.24533-0.15162 0.47423-0.19695 0.6875-0.1875zm-39.125 1.7188c-1.1309 0.28882-3.9395 11.595-5.0312 20.781-0.67773 5.7021 0.0439 4.1597 2.5-5.3438 1.9021-7.3599 3.1855-14.175 2.8438-15.156-0.07692-0.22087-0.19551-0.31113-0.3125-0.28125zm165.78 12.188c0.1217-0.04481 0.28928 0.00803 0.4375 0.15625 0.59287 0.59287 0.64041 2.1495 0.125 3.4375-0.56956 1.4233-0.9769 0.98478-1.0625-1.0938-0.0581-1.4106 0.1349-2.3656 0.5-2.5zm-154.66 1.75c-0.17735 0.00357-0.42445 0.09936-0.71875 0.28125-1.0296 0.63634-2.2953 2.7721-2.8125 4.75s-0.20195 3.5937 0.6875 3.5938 1.625-0.72395 1.625-1.625 0.53008-3.0368 1.1875-4.75c0.56374-1.4691 0.56329-2.2607 0.03125-2.25zm195.88 4.0938c0.10757 0.04008 0.22001 0.22459 0.34375 0.53125 0.49496 1.2266 0.49494 3.2108 0 4.4375s-0.90624 0.23453-0.90625-2.2188c0-1.84 0.23978-2.8702 0.5625-2.75zm5.375 5.4688c0.89094-0.28661 2.8733 9.5534 4.3125 24.938 4.0201 42.972 9.0655 122.2 10 157 2.5673 95.614 5.1269 220.61 4.7188 230.12-0.25143 5.8618-1.4186 11.284-2.5938 12.031s-2.7328 1.36-3.4688 1.375c-0.73599 0.01502-1.3504-31.099-1.375-69.125s-0.42677-79.971-0.875-93.219-1.2138-43.739-1.7188-67.781c-0.77692-36.993-5.4919-131.64-9.0938-182.91-0.59471-8.4655-0.44081-12.266 0.09375-12.438zm-204.94 6.2188c-0.37621 0-1.1118 1.5999-1.625 3.5625s-0.20195 3.5625 0.6875 3.5625 1.625-1.5998 1.625-3.5625-0.31129-3.5625-0.6875-3.5625zm201.44 2.75c0.10751 0.00976 0.21559 0.43372 0.34375 1.2812 0.41012 2.7121 0.39224 6.7118-0.03125 8.9062s-0.73213 3.3e-4 -0.71875-4.9062c0.00921-3.3733 0.16972-5.3027 0.40625-5.2812zm-14.219 4.625c0.09467-0.10811 0.19764 0.51211 0.3125 1.9688 0.36755 4.6613 0.36756 12.307 0 16.969s-0.65626 0.85378-0.65625-8.4688c0-6.4092 0.13548-10.231 0.34375-10.469zm29.906 0.4375c2.8476 0.27731 8.2291 95.424 9.0312 160.78 0.32517 26.496 0.04475 58.618-0.625 71.375-0.88404 16.839-1.2219 7.3152-1.2188-34.781 0.00505-68.253-1.5353-111.47-6.1875-171.88-1.0443-13.559-1.5573-25.005-1.125-25.438 0.0439-0.0439 0.0798-0.0669 0.125-0.0625zm-189.69 5.25c0.49066-0.32214 0.33659 10.859-0.34375 24.844s-1.2247 49.114-1.2188 78.062c0.01748 85.495-1.3905 142.63-5.7812 236.41-2.7178 58.043-3.5341 65.476-6.9375 63.312-1.472-0.93588-4.8145-1.735-7.4375-1.75h-4.7812l0.78125-12.938c4.0489-68.058 6.588-133.33 8.8438-227.06 0.5668-23.552 1.7978-57.274 2.7188-74.938s1.6557-42.972 1.6562-56.25v-24.125l5.8125-2.5c3.1893-1.3659 6.1968-2.7404 6.6875-3.0625zm150.72 3.875 0.5625 9.625c0.31531 5.292-0.05161 10.267-0.84375 11.062s-1.0706-3.537-0.59375-9.625l0.875-11.062zm24.812 6.7812c0.44246 0.18253 1.3321 9.514 2 21.219 0.68939 12.082 0.95311 24.369 0.59375 27.312s-1.2742-6.5883-2.0312-21.188-1.0208-26.885-0.59375-27.312c0.01334-0.01334 0.01698-0.03714 0.03125-0.03125zm-214.78 29.781c0.09209-0.0921 0.80381 0.45282 2.2188 1.5625 1.7173 1.3468 3.125 2.7545 3.125 3.125 0 1.4685-1.4504 0.53453-3.7812-2.4375-1.1097-1.4149-1.6546-2.1579-1.5625-2.25zm49.375 1.25c0.14965 0.15314 0.20085 1.5776 0.25 4.125 0.06628 3.4346-0.53183 9.4497-1.3438 13.375-1.2733 6.1559-1.4996 6.3982-1.5625 1.7812-0.04011-2.944 0.58925-8.9591 1.375-13.375 0.74928-4.2109 1.0888-6.1031 1.2812-5.9062zm179.94 0.53125c0.10195-0.07397 0.22006 0.3471 0.34375 1.3438 0.39577 3.1893 0.39576 8.4044 0 11.594s-0.71875 0.59731-0.71875-5.7812c0-4.3853 0.15072-6.9935 0.375-7.1562zm-103 5.4688c-0.24996-0.04848-0.66098 0.53428-1.4062 1.6875-0.95127 1.472-1.7662 3.3311-1.7812 4.125s0.79993 0.95026 1.7812 0.34375 1.765-2.4656 1.75-4.125c-0.01178-1.3-0.09379-1.9828-0.34375-2.0312zm-72.125 18.062c-0.36509 0.13443-0.58935 1.0894-0.53125 2.5 0.08562 2.0785 0.52418 2.5171 1.0938 1.0938 0.5154-1.288 0.43663-2.8446-0.15625-3.4375-0.14822-0.14822-0.28455-0.20106-0.40625-0.15625zm125.78 1.4688c-0.84523 0-1.5625 0.72398-1.5625 1.625s-0.46684 2.9165-1.0625 4.4688-0.2844 2.8125 0.6875 2.8125 2.156-1.9842 2.625-4.4375 0.15774-4.4688-0.6875-4.4688zm38.594 0.71875c0.0188-0.01813 0.03955 0.03359 0.0625 0.15625 1.3545 7.2387 4.3708 100.08 5.3125 163.28 0.53369 35.818 1.3016 86.786 1.6875 113.28s0.04363 51.387-0.75 55.312c-1.0216 5.0527-1.5742-1.4701-1.9375-22.312-0.38882-22.307-0.80222-26.632-1.6875-17.844l-1.1875 11.625-0.28125-13.062c-0.23657-10.018 0.19303-12.717 1.9062-11.688 1.5154 0.91045 1.4451 0.36375-0.21875-1.6875-1.7273-2.1294-1.8306-3.0313-0.34375-3.0312 1.1594 0 1.6344-0.77419 1.0312-1.75s-0.92663-18.445-0.71875-38.812 0.20133-39.847 0-43.281-0.59361-30.342-0.875-59.781-0.98919-71.577-1.5625-93.656c-0.53749-20.7-0.71947-36.478-0.4375-36.75zm-165.03 4.625c-0.98132 0-1.7812 0.79994-1.7812 1.7812s0.79993 1.7812 1.7812 1.7812 1.7812-0.79993 1.7812-1.7812-0.79993-1.7812-1.7812-1.7812zm-38.594 2.125c-0.36509 0.13443-0.58936 1.0894-0.53125 2.5 0.08561 2.0785 0.52418 2.4858 1.0938 1.0625 0.51541-1.288 0.43663-2.8134-0.15625-3.4062-0.14822-0.14822-0.28455-0.20106-0.40625-0.15625zm162.09 3.2188c-0.76728 0-1.5378 2.2076-1.6875 4.9062-0.23489 4.234-0.04925 4.423 1.2812 1.3438 2.0081-4.6473 2.1184-6.25 0.40625-6.25zm53.812 0.34375c0.1217-0.04481 0.25803 0.00804 0.40625 0.15625 0.59288 0.59287 0.64041 2.1182 0.125 3.4062-0.56956 1.4233-0.9769 1.016-1.0625-1.0625-0.05811-1.4106 0.16616-2.3656 0.53125-2.5zm-177.91 0.03125c-0.40477 0.12236-1.0348 1.9351-1.875 5.4375-0.69878 2.9128-0.42313 4.9062 0.65625 4.9062 1 0 1.8125-2.5488 1.8125-5.6562 0-3.2484-0.18898-4.8099-0.59375-4.6875zm-38.781 3.2188c-1.0392 0-1.3877 0.79994-0.78125 1.7812s1.4735 1.7812 1.9062 1.7812 0.78125-0.79993 0.78125-1.7812-0.86702-1.7812-1.9062-1.7812zm-0.625 15c-0.19075 0.21111-0.34203 6.0989-0.34375 16.219-0.00176 10.35 0.17722 16.489 0.375 16.781 0.07318-0.17738 0.16556-1.1076 0.25-2.875 0.33776-7.0697 0.33526-19.131 0-26.781-0.10477-2.3906-0.19455-3.4397-0.28125-3.3438zm49.844 2.0312c0.10751 0.00976 0.21559 0.43372 0.34375 1.2812 0.41011 2.7121 0.4235 6.7118 0 8.9062s-0.76339-0.03092-0.75-4.9375c0.00921-3.3733 0.16973-5.2715 0.40625-5.25zm0 17.844c0.10751 0.00976 0.21559 0.43372 0.34375 1.2812 0.41011 2.7121 0.4235 6.7118 0 8.9062s-0.76339-0.03092-0.75-4.9375c0.00921-3.3733 0.16973-5.2715 0.40625-5.25zm44.812 15.188c-0.01686 0.00122-0.04495 0.01276-0.0625 0.03125-0.38823 0.40889-1.2296 14.38-1.875 31.062s-1.5893 31.751-2.0938 33.469-0.18177 3.125 0.71875 3.125 2.1749-7.3611 2.8125-16.344c1.2513-17.629 1.562-51.421 0.5-51.344zm-96.156 14.156c-0.73599 0.0023-1.1962 9.4382-1.0312 20.969 0.31078 21.723 1.0743 19.24 1.9062-6.25 0.26432-8.0982-0.13901-14.721-0.875-14.719zm84.781 25.219c-0.07462 0.06116-0.15692 0.28826-0.25 0.65625-0.74463 2.944-1.5511 12.956-1.7812 22.25-0.59162 23.895 0.93424 19.448 2.125-6.1875 0.47862-10.304 0.42857-17.147-0.09375-16.719zm7.8125 30.25c-0.36104 0.40889-1.0821 7.7572-1.5938 16.344-0.51371 8.6208-0.21996 15.625 0.65625 15.625 0.87273 0 1.5938-7.3796 1.5938-16.375s-0.2952-16.003-0.65625-15.594zm-9.875 10.562c-0.87584 0-1.5828 4.9918-1.5625 11.125 0.02853 8.5984 0.36968 9.9397 1.4062 5.8125 1.936-7.7085 2.0131-16.938 0.15625-16.938zm110.69 16.875c-0.09661-0.07067-0.21836 0.23051-0.34375 0.9375-0.78323 4.4159-1.4898 20.818-1.5625 36.438s0.17421 28.065 0.53125 27.656 1.0323-16.811 1.5312-36.438c0.43135-16.968 0.36546-28.212-0.15625-28.594zm-18.594 2.75c-0.02119 0.00406-0.03996 0.0376-0.0625 0.0625-0.41406 0.45742-1.2499 11.243-1.8438 24-0.61654 13.245-0.42804 21.663 0.4375 19.625 1.4811-3.487 2.8037-43.944 1.4688-43.688zm-83.938 2.6562-1.25 13.375c-0.69439 7.3599-1.266 18.621-1.25 25l0.03125 11.594 1.3438-10.719c0.73053-5.8879 1.2709-17.118 1.2188-24.969l-0.09375-14.281zm135.22 39.188c0.10757 0.04007 0.22001 0.22459 0.34375 0.53125 0.49496 1.2266 0.49496 3.2108 0 4.4375s-0.87501 0.23454-0.875-2.2188c0-1.84 0.20854-2.8702 0.53125-2.75zm-0.15625 8.4375c0.1217-0.04481 0.25802 0.00802 0.40625 0.15625 0.59288 0.59288 0.67166 2.1182 0.15625 3.4062-0.56956 1.4233-1.0082 1.016-1.0938-1.0625-0.0581-1.4106 0.16615-2.3656 0.53125-2.5zm-147.94 4.0625c0.10757 0.04007 0.25126 0.19334 0.375 0.5 0.49496 1.2266 0.49497 3.2421 0 4.4688s-0.90626 0.23454-0.90625-2.2188c0-1.84 0.20854-2.8702 0.53125-2.75zm11.438 0.0625-2.4062 16.938c-1.3254 9.3225-2.6688 25.99-3 37.031s-0.01722 20.064 0.71875 20.062 1.4685-7.0072 1.5938-15.594 0.40002-17.225 0.625-19.188 0.86716-11.593 1.4375-21.406l1.0312-17.844zm83.375 4.125c-0.20136-0.16066-0.34375 6.5496-0.34375 18.188 0 16.192 0.26314 22.815 0.59375 14.719s0.3306-21.342 0-29.438c-0.09298-2.277-0.17121-3.4059-0.25-3.4688zm53.406 11.031c0.10195-0.07397 0.22006 0.34709 0.34375 1.3438 0.39577 3.1893 0.39576 8.4045 0 11.594s-0.71875 0.59729-0.71875-5.7812c0-4.3853 0.15072-6.9935 0.375-7.1562zm-119.56 20.625c0.10751 0.00976 0.2156 0.40247 0.34375 1.25 0.41012 2.7121 0.39225 6.743-0.03125 8.9375s-0.73212-0.03092-0.71875-4.9375c0.00921-3.3733 0.16972-5.2715 0.40625-5.25zm119.59 4c0.09562-0.17323 0.19557 0.36218 0.3125 1.6562 0.37419 4.141 0.40001 11.372 0.03125 16.062s-0.68209 1.3006-0.6875-7.5312c-0.00374-6.0719 0.1334-9.8064 0.34375-10.188zm-155.38 1.25c0.10286-0.00929 0.22157 0.10426 0.34375 0.40625 0.48874 1.208 0.51488 3.639 0.0625 5.375s-0.86989 0.7252-0.90625-2.2188c-0.02728-2.208 0.19142-3.5346 0.5-3.5625zm99.875 11.594c-0.43274 0-0.78125 0.79994-0.78125 1.7812s0.83576 1.7812 1.875 1.7812 1.3877-0.79992 0.78125-1.7812-1.4422-1.7812-1.875-1.7812zm-65.969 0.3125c0.03115-0.01373 0.0618-7e-4 0.09375 0.03125 0.51125 0.51125 1.0081 5.9118 1.0938 12s-0.34055 11.559-0.9375 12.156-1.0938-4.8037-1.0938-12c0-6.7466 0.37655-11.981 0.84375-12.188zm-68.062 2.5625c0.26713-0.17564 0.70959 5.125 1.4062 16.688 0.79578 13.208 1.074 24.395 0.625 24.844s-0.86853-2.7284-0.9375-7.0625c-0.10085-6.3372-0.45223-7.1822-1.8125-4.3125-1.2644 2.6674-1.4891 1.7411-0.8125-3.5938 0.49783-3.9253 1.0328-13.14 1.1875-20.5 0.08127-3.8659 0.18347-5.9571 0.34375-6.0625zm37.875 9c0.08755 0.03904 0.17947 0.36099 0.28125 1.0312 0.40712 2.681 0.42835 7.5119 0.03125 10.719s-0.73999 1.0129-0.75-4.875c-0.00752-4.4159 0.17484-6.9921 0.4375-6.875zm56.969 11.031c0.11559-0.03983 0.23476 0.21335 0.375 0.75 0.44877 1.7173 0.44877 4.5327 0 6.25s-0.81249 0.30964-0.8125-3.125c0-2.3613 0.1832-3.7874 0.4375-3.875zm-154.12 5.6562c0.28119-0.01497 0.58629 0 0.90625 0 3.7384 0 4.2881 0.82805 4.3125 6.6875 0.04371 10.492 4.6985 27.699 8.1875 30.25 1.7424 1.274 7.2587 2.3125 12.25 2.3125 5.773 0 10.662 1.1388 13.469 3.125 2.5881 1.8318 9.579 3.6189 16.906 4.3125 20.219 1.9139 29.433 3.6206 28.406 5.2812-0.52898 0.8559 2.3339 1.5625 6.375 1.5625 4.2215 0 6.9186-0.73815 6.3125-1.7188-0.63976-1.0352 1.2294-1.2465 4.7812-0.5625 3.2208 0.62026 12.037 1.3005 19.594 1.5312s14.525 0.88547 15.469 1.4688 7.1966 0.58437 13.906 0c15.331-1.3353 23.822-1.0794 26.312 0.75 1.0675 0.78427 2.9608 1.2766 4.1875 1.0938s5.07-0.43981 8.5625-0.5625c3.7331-0.13112 5.8983-0.95112 5.25-2-0.6942-1.1232 3.452-1.7812 11.156-1.7812 6.9267 0 13.137-0.91873 14.312-2.0938 1.1686-1.1686 11.257-2.6627 23.094-3.4062 11.566-0.7265 21.306-1.3744 21.656-1.4688s0.18986-1.3718-0.375-2.8438-0.70135-2.6875-0.3125-2.6875c0.7428 0 11.656 22.56 11.656 24.094 0 0.48804-5.7485 0.87501-12.781 0.875s-12.398 0.41485-11.906 0.90625 6.6916 0.98584 13.781 1.0938l12.906 0.1875-0.5625 21.656-0.53125 21.656-14.281 1.1875c-15.729 1.3203-175.52 1.1334-231.94-0.28125l-35.688-0.90625 0.15625-43.719c0.24742-62.042 0.25096-65.776 4.4688-66zm125.72 2.375c0.27035-0.00215 0.34788 5.9588 0.5 19.469 0.17286 15.35-0.38364 24.531-1.5 24.531-2.0198 0-2.0484-11.633-0.09375-33.906 0.57004-6.4957 0.88347-10.092 1.0938-10.094zm-33.375 10.094c0.1316-0.0168 0.26295 0.08768 0.40625 0.34375 0.74151 1.325 0.68685 5.2097-0.125 8.625-1.415 5.9528-1.4664 5.8561-1.3438-2.4062 0.05891-3.9698 0.49222-6.4897 1.0625-6.5625zm95.5 21.75c0.1217-0.04481 0.25803 0.00803 0.40625 0.15625 0.59288 0.59288 0.64042 2.1495 0.125 3.4375-0.56955 1.4233-0.97689 0.98477-1.0625-1.0938-0.0581-1.4106 0.16616-2.3656 0.53125-2.5zm-94.406 2.3438c0.10286-0.00928 0.22157 0.10426 0.34375 0.40625 0.48874 1.208 0.51488 3.639 0.0625 5.375s-0.86989 0.72522-0.90625-2.2188c-0.02728-2.208 0.19142-3.5346 0.5-3.5625zm95.5 4.4688c0.98132 0 1.8125 0.79994 1.8125 1.7812s-0.83117 1.7812-1.8125 1.7812-1.7812-0.79993-1.7812-1.7812 0.79995-1.7813 1.7812-1.7812zm-157 21.75c-21.444-0.04832-35.568 0.15343-35.219 0.71875 0.55547 0.89855 38.152 1.9034 85.469 2.25 46.461 0.34038 84.81 0.91686 85.219 1.3125s14.38 0.71877 31.062 0.71875 30.003-0.31248 29.594-0.71875c-1.7172-1.7062-131.79-4.1363-196.12-4.2812zm212.53 1.6875c-0.97017 0.01198-1.8648 0.13063-2.4688 0.375-1.208 0.48875 0.21229 0.84886 3.1562 0.8125s3.9235-0.42264 2.1875-0.875c-0.868-0.22618-1.9048-0.32448-2.875-0.3125z"/>
</svg>
